<svg width="23" height="23" viewBox="0 0 23 23" fill="none" xmlns="http://www.w3.org/2000/svg">
<path d="M16.2916 21.0834H6.70825C6.31534 21.0834 5.9895 20.7575 5.9895 20.3646C5.9895 19.9717 6.31534 19.6459 6.70825 19.6459H16.2916C16.6845 19.6459 17.0103 19.9717 17.0103 20.3646C17.0103 20.7575 16.6845 21.0834 16.2916 21.0834Z" fill="url(#paint0_linear_54_1299)"/>
<path d="M19.5021 5.29008L15.6687 8.03091C15.1608 8.39508 14.4325 8.17466 14.212 7.59008L12.4008 2.76008C12.0941 1.92633 10.9154 1.92633 10.6087 2.76008L8.78788 7.58049C8.56747 8.17466 7.84872 8.39508 7.3408 8.02133L3.50747 5.28049C2.7408 4.74383 1.72497 5.50091 2.04122 6.39216L6.02788 17.5567C6.16205 17.9401 6.52622 18.1892 6.92872 18.1892H16.0616C16.4641 18.1892 16.8283 17.9305 16.9625 17.5567L20.9491 6.39216C21.275 5.50091 20.2591 4.74383 19.5021 5.29008ZM13.8958 14.1355H9.10413C8.71122 14.1355 8.38538 13.8097 8.38538 13.4167C8.38538 13.0238 8.71122 12.698 9.10413 12.698H13.8958C14.2887 12.698 14.6145 13.0238 14.6145 13.4167C14.6145 13.8097 14.2887 14.1355 13.8958 14.1355Z" fill="url(#paint1_linear_54_1299)"/>
<defs>
<linearGradient id="paint0_linear_54_1299" x1="11.4999" y1="19.6459" x2="11.4999" y2="21.0834" gradientUnits="userSpaceOnUse">
<stop stop-color="#FF8A00"/>
<stop offset="1" stop-color="#FF1619"/>
</linearGradient>
<linearGradient id="paint1_linear_54_1299" x1="11.4968" y1="2.13477" x2="11.4968" y2="18.1892" gradientUnits="userSpaceOnUse">
<stop stop-color="#FF8A00"/>
<stop offset="1" stop-color="#FF1619"/>
</linearGradient>
</defs>
</svg>
