<svg width="24" height="24" viewBox="0 0 24 24" xmlns="http://www.w3.org/2000/svg">
    <g transform="translate(1 1)" stroke="#504190" stroke-width="1.714" fill="none" fill-rule="evenodd" stroke-linecap="round" stroke-linejoin="round">
        <path d="M11.76 22.166h0a1.714 1.714 0 0 1-1.234 0h0A16.577 16.577 0 0 1 0 6.737V1.714C0 .768.768 0 1.714 0h18.857c.947 0 1.715.768 1.715 1.714V6.72A16.577 16.577 0 0 1 11.76 22.166z"/>
        <rect x="6.857" y="8.571" width="8.571" height="6.857" rx=".5"/>
        <path d="M13.714 8.571V6.857a2.571 2.571 0 1 0-5.143 0v1.714"/>
    </g>
</svg>
