<svg width="16" height="16" viewBox="0 0 16 16" xmlns="http://www.w3.org/2000/svg">
    <path d="m7.947.333.13.004c.133.011.263.047.383.107l5.562 2.65c.29.14.503.403.575.717L15.97 9.78c.078.313.002.643-.2.893l-3.847 4.787a1.082 1.082 0 0 1-.832.396H4.917a1.064 1.064 0 0 1-.83-.392l-3.85-4.786a1.273 1.273 0 0 1-.06-.084 1.03 1.03 0 0 1-.15-.813l1.364-5.964c.072-.314.284-.578.575-.716L7.537.443c.129-.063.269-.1.412-.109h-.002zM8 2.367a.352.352 0 0 0-.328.37v.094c.01.106.025.212.046.316.03.2.042.403.033.605a.364.364 0 0 1-.109.173l-.007.14A4.281 4.281 0 0 0 4.857 5.4l-.12-.084a.259.259 0 0 1-.198-.02 3.11 3.11 0 0 1-.448-.405 2.774 2.774 0 0 0-.219-.233L3.798 4.6a.4.4 0 0 0-.231-.087.32.32 0 0 0-.265.118.353.353 0 0 0 .081.491l.07.055c.088.06.18.113.275.162.177.098.344.214.5.35a.37.37 0 0 1 .066.192l.109.1a4.309 4.309 0 0 0-.68 3.002l-.139.04a.457.457 0 0 1-.143.144 3.11 3.11 0 0 1-.597.099c-.107.002-.214.01-.32.025l-.088.02h-.01a.335.335 0 0 0-.194.565c.09.09.222.122.342.083h.007l.09-.01c.101-.03.201-.067.299-.11.187-.074.381-.132.58-.17a.365.365 0 0 1 .191.068l.15-.025a4.33 4.33 0 0 0 1.92 2.401l-.061.128a.333.333 0 0 1 .03.188 3.228 3.228 0 0 1-.301.546 2.79 2.79 0 0 0-.18.266l-.042.09a.335.335 0 0 0 .325.5.335.335 0 0 0 .277-.215l.041-.085c.038-.1.07-.202.096-.305.088-.219.136-.453.257-.598a.27.27 0 0 1 .143-.07l.075-.137a4.31 4.31 0 0 0 3.073.008l.066.127a.26.26 0 0 1 .17.103c.094.179.17.366.228.56.027.103.06.205.097.305l.042.085a.335.335 0 0 0 .593.066.335.335 0 0 0 .008-.35l-.043-.09a2.774 2.774 0 0 0-.18-.266 3.539 3.539 0 0 1-.3-.529.26.26 0 0 1 .035-.2 1.145 1.145 0 0 1-.056-.134c.91-.542 1.59-1.4 1.911-2.41l.142.025a.265.265 0 0 1 .187-.069c.198.038.393.1.58.17.098.045.198.083.3.115.024.007.059.012.086.019h.006a.335.335 0 0 0 .42-.426.335.335 0 0 0-.271-.222l-.097-.023a2.784 2.784 0 0 0-.32-.025 3.05 3.05 0 0 1-.597-.099.376.376 0 0 1-.144-.144l-.135-.04a4.324 4.324 0 0 0-.693-2.996l.118-.109a.263.263 0 0 1 .062-.189 3.14 3.14 0 0 1 .495-.348c.095-.048.187-.102.276-.161l.073-.06a.335.335 0 1 0-.415-.52l-.074.06c-.077.073-.15.15-.218.232a3.118 3.118 0 0 1-.437.411.37.37 0 0 1-.201.022l-.127.09a4.367 4.367 0 0 0-2.767-1.334c0-.05-.006-.125-.007-.149a.262.262 0 0 1-.11-.166 3.114 3.114 0 0 1 .039-.603c.021-.105.036-.21.046-.317v-.1a.352.352 0 0 0-.328-.37L8 2.367zm-.011 7.581a.295.295 0 0 1 .268.154h.007l.846 1.529-.338.1a3.447 3.447 0 0 1-1.879-.097l.85-1.529a.295.295 0 0 1 .25-.147l-.004-.01zm1.526-.707 1.734.292A3.408 3.408 0 0 1 9.86 11.28l-.67-1.622a.295.295 0 0 1 .255-.41l.002-.007a.304.304 0 0 1 .067 0zm-2.978.008a.294.294 0 0 1 .265.408v.007l-.666 1.609a3.44 3.44 0 0 1-1.378-1.729l1.718-.291a.281.281 0 0 1 .058 0l.003-.004zm1.73-1.427.328.416-.12.52-.48.232-.483-.232-.114-.52.333-.416h.536zm-3.21-1.26 1.31 1.17v.007a.294.294 0 0 1-.116.504v.005l-1.68.484a3.43 3.43 0 0 1 .487-2.17zm5.877.004c.396.644.572 1.403.5 2.16L9.75 8.24v-.007a.29.29 0 0 1-.208-.217.296.296 0 0 1 .093-.287l1.299-1.164zM8.417 4.95a3.461 3.461 0 0 1 1.994.962L8.992 6.92a.294.294 0 0 1-.476-.225l-.1-1.745zm-.834 0-.1 1.747h-.008a.301.301 0 0 1-.166.251.282.282 0 0 1-.3-.027L5.577 5.906a3.43 3.43 0 0 1 1.651-.9c.117-.025.235-.044.354-.057z" fill="#504190" fill-rule="nonzero"/>
</svg>
