<svg width="23" height="23" viewBox="0 0 23 23" fill="none" xmlns="http://www.w3.org/2000/svg">
<path d="M19.2626 8.83592C17.528 8.83592 16.8188 7.60925 17.6813 6.10466C18.1797 5.23258 17.8826 4.12091 17.0105 3.62258L15.3526 2.67383C14.5955 2.22341 13.618 2.49175 13.1676 3.24883L13.0622 3.43091C12.1997 4.9355 10.7813 4.9355 9.90925 3.43091L9.80383 3.24883C9.37258 2.49175 8.39508 2.22341 7.638 2.67383L5.98008 3.62258C5.108 4.12091 4.81091 5.24216 5.30925 6.11425C6.18133 7.60925 5.47216 8.83592 3.73758 8.83592C2.74091 8.83592 1.91675 9.6505 1.91675 10.6567V12.3434C1.91675 13.3401 2.73133 14.1642 3.73758 14.1642C5.47216 14.1642 6.18133 15.3909 5.30925 16.8955C4.81091 17.7676 5.108 18.8792 5.98008 19.3776L7.638 20.3263C8.39508 20.7767 9.37258 20.5084 9.823 19.7513L9.92841 19.5692C10.7909 18.0647 12.2092 18.0647 13.0813 19.5692L13.1867 19.7513C13.6372 20.5084 14.6147 20.7767 15.3717 20.3263L17.0297 19.3776C17.9017 18.8792 18.1988 17.758 17.7005 16.8955C16.8284 15.3909 17.5376 14.1642 19.2722 14.1642C20.2688 14.1642 21.093 13.3497 21.093 12.3434V10.6567C21.0834 9.66008 20.2688 8.83592 19.2626 8.83592ZM11.5001 14.6147C9.78467 14.6147 8.3855 13.2155 8.3855 11.5001C8.3855 9.78466 9.78467 8.3855 11.5001 8.3855C13.2155 8.3855 14.6147 9.78466 14.6147 11.5001C14.6147 13.2155 13.2155 14.6147 11.5001 14.6147Z" fill="url(#paint0_linear_54_1189)"/>
<defs>
<linearGradient id="paint0_linear_54_1189" x1="11.5049" y1="2.45447" x2="11.5049" y2="20.5457" gradientUnits="userSpaceOnUse">
<stop stop-color="#FF8A00"/>
<stop offset="1" stop-color="#FF1619"/>
</linearGradient>
</defs>
</svg>
