<?xml version="1.0" encoding="utf-8"?>
<!-- Generator: Adobe Illustrator 27.3.1, SVG Export Plug-In . SVG Version: 6.00 Build 0)  -->
<svg version="1.1" id="Layer_1" xmlns="http://www.w3.org/2000/svg" xmlns:xlink="http://www.w3.org/1999/xlink" x="0px" y="0px"
	 viewBox="0 0 24 24" style="enable-background:new 0 0 24 24;" xml:space="preserve">
<style type="text/css">
	.st0{fill:none;stroke:#504190;stroke-width:1.714;stroke-linecap:round;stroke-linejoin:round;}
	.st1{fill:#4D428A;}
</style>
<g transform="translate(1 1)">
	<path class="st0" d="M21.8,22.3H0.5c-0.3,0-0.5-0.2-0.5-0.5V0.5C0,0.2,0.2,0,0.5,0h21.3c0.3,0,0.5,0.2,0.5,0.5v21.3
		C22.3,22.1,22.1,22.3,21.8,22.3z"/>
	<path class="st0" d="M7.7,4.3 M4.3,4.3 M12,8.6 M4.3,8.6 M18.9,8.6l-5.1,8.6l-6-3.4l-3.4,5.1"/>
</g>
<path class="st1" d="M8.2,3.9C6.9,3.9,6,4.5,5.2,5.1C4.5,5.8,4,6.6,3.8,7.1c-0.1,0.1-0.1,0.3,0,0.4c0.2,0.5,0.7,1.3,1.4,2
	c0.7,0.7,1.7,1.2,2.9,1.2s2.2-0.6,2.9-1.2c0.7-0.7,1.2-1.5,1.4-2c0.1-0.1,0.1-0.3,0-0.4c-0.2-0.5-0.7-1.3-1.4-2
	C10.4,4.5,9.4,3.9,8.2,3.9z M6,7.3c0-1.2,1-2.2,2.2-2.2s2.2,1,2.2,2.2s-1,2.2-2.2,2.2S6,8.5,6,7.3z M8.2,6.3c0,0.5-0.4,1-1,1
	c-0.1,0-0.2,0-0.3-0.1c-0.1,0-0.2,0-0.2,0.1c0,0.1,0,0.2,0,0.3c0.2,0.8,1,1.2,1.8,1c0.8-0.2,1.2-1,1-1.8C9.4,6.3,8.9,5.9,8.2,5.9
	C8.2,5.9,8.1,6,8.1,6C8.2,6.1,8.2,6.2,8.2,6.3L8.2,6.3z"/>
</svg>
