<svg width="424" height="335" viewBox="0 0 424 335" fill="none" xmlns="http://www.w3.org/2000/svg">
<path d="M22.109 170.036C21.5892 164.214 22.9375 158.377 25.9586 153.372C29.972 146.719 36.4451 141.916 43.9755 140.002C51.5059 138.089 59.4869 139.219 66.1894 143.149C66.6153 143.353 66.9739 143.674 67.2229 144.075C67.4718 144.476 67.6006 144.94 67.594 145.412C67.56 146.169 67.2554 146.889 66.7355 147.44L59.082 155.871C58.8518 156.117 58.5737 156.313 58.2649 156.447C57.9561 156.581 57.6232 156.65 57.2865 156.651C56.8002 156.659 56.3188 156.552 55.882 156.338C54.4043 155.7 52.8084 155.38 51.1988 155.401C49.0259 155.386 46.8867 155.939 44.9932 157.004C43.1405 158.025 41.5916 159.519 40.5045 161.334C39.4178 163.145 38.8516 165.221 38.8683 167.333C38.8591 169.44 39.4409 171.509 40.5479 173.302C41.6425 175.131 43.1862 176.649 45.0325 177.713C46.9016 178.806 49.0316 179.372 51.1967 179.353C52.9436 179.325 54.6679 178.954 56.2708 178.259C56.6823 178.052 57.1364 177.945 57.5968 177.946C57.9158 177.94 58.2327 177.999 58.528 178.12C58.8233 178.241 59.0907 178.421 59.3136 178.65L67.9001 187.077C68.1909 187.346 68.4237 187.672 68.5844 188.035C68.7452 188.397 68.8304 188.788 68.8351 189.185C68.83 189.605 68.7204 190.018 68.516 190.386C68.3116 190.754 68.0189 191.066 67.6643 191.292C62.7985 194.504 57.1072 196.238 51.2774 196.286C45.8116 196.295 40.451 194.784 35.7946 191.921C31.1382 189.059 27.3696 184.958 24.9098 180.077C23.3249 176.947 22.3731 173.535 22.109 170.036Z" fill="white"/>
<path d="M95.4696 192.663V167.607L75.7524 142.946C75.3969 142.56 75.1997 142.055 75.2 141.531C75.1999 141.218 75.2668 140.908 75.3964 140.622C75.5259 140.337 75.715 140.082 75.9509 139.876C76.4529 139.402 77.1081 139.122 77.7981 139.088L93.519 139.076C93.9615 139.081 94.4 139.16 94.8159 139.311C95.2453 139.472 95.6378 139.718 95.9702 140.033L104.313 152.577L112.345 140.029C112.622 139.696 112.987 139.446 113.398 139.307C113.828 139.158 114.279 139.078 114.734 139.072L130.523 139.084C131.203 139.113 131.847 139.394 132.331 139.872C132.556 140.085 132.736 140.341 132.858 140.626C132.98 140.91 133.042 141.217 133.04 141.527C133.03 142.035 132.866 142.528 132.571 142.942L113.294 167.607V192.669C113.297 193.128 113.204 193.582 113.021 194.003C112.837 194.423 112.567 194.801 112.229 195.11C111.539 195.808 110.618 196.229 109.639 196.293H98.982C98.0303 196.211 97.1444 195.774 96.4997 195.069C96.1661 194.765 95.9015 194.393 95.7238 193.978C95.5461 193.563 95.4594 193.114 95.4696 192.663V192.663Z" fill="white"/>
<path d="M251.557 153.454V160.417H275.618C276.058 160.421 276.492 160.514 276.895 160.692C277.297 160.87 277.659 161.128 277.958 161.451C278.298 161.79 278.565 162.194 278.743 162.64C278.921 163.086 279.005 163.563 278.992 164.043V171.192C278.988 172.13 278.616 173.029 277.958 173.697C277.67 174.039 277.313 174.315 276.909 174.507C276.505 174.698 276.065 174.8 275.618 174.805H251.557V181.816H276.77C277.223 181.814 277.671 181.904 278.086 182.082C278.502 182.26 278.877 182.521 279.188 182.85C279.533 183.201 279.803 183.619 279.981 184.079C280.158 184.538 280.241 185.028 280.223 185.52V192.587C280.23 193.552 279.858 194.483 279.188 195.178C278.888 195.526 278.517 195.805 278.1 195.996C277.683 196.187 277.229 196.287 276.77 196.287H238.043C237.584 196.287 237.13 196.188 236.712 195.997C236.295 195.805 235.923 195.526 235.623 195.178C234.953 194.483 234.582 193.552 234.589 192.587V142.685C234.576 142.206 234.661 141.73 234.839 141.285C235.017 140.84 235.283 140.436 235.623 140.098C235.934 139.769 236.31 139.507 236.726 139.329C237.142 139.152 237.591 139.061 238.043 139.063H276.77C277.223 139.061 277.671 139.152 278.086 139.33C278.502 139.508 278.877 139.769 279.188 140.098C279.528 140.436 279.795 140.84 279.973 141.285C280.151 141.73 280.236 142.206 280.223 142.685V149.834C280.221 150.302 280.125 150.765 279.942 151.196C279.759 151.627 279.491 152.017 279.155 152.343C278.858 152.684 278.493 152.959 278.083 153.15C277.674 153.341 277.228 153.444 276.776 153.452L251.557 153.454Z" fill="white"/>
<path d="M331.361 195.722C331.047 195.557 328.765 193.156 324.516 188.52C320.268 183.883 314.052 177.037 305.868 167.979C305.08 167.159 304.58 166.748 304.371 166.748C304.164 166.748 304.032 166.873 303.98 167.117C303.916 167.51 303.889 167.908 303.901 168.306V193.019C303.91 193.872 303.584 194.694 302.995 195.311C302.715 195.626 302.369 195.878 301.983 196.047C301.596 196.217 301.177 196.301 300.755 196.293H290.29C289.79 196.29 289.297 196.174 288.847 195.955C288.397 195.735 288.003 195.418 287.692 195.025C286.965 194.201 286.572 193.135 286.59 192.036V143.589C286.58 142.416 287.001 141.281 287.773 140.397C288.097 139.972 288.512 139.626 288.989 139.385C289.466 139.144 289.992 139.014 290.526 139.005H300.283C300.997 138.972 301.709 139.098 302.369 139.373C303.102 139.819 303.755 140.387 304.298 141.051C306.708 143.671 310.642 147.941 316.102 153.859C321.561 159.778 325.836 164.375 328.927 167.65C329.179 167.853 329.475 167.994 329.791 168.064C330.106 168.064 330.265 167.628 330.265 166.755V142.363C330.264 141.492 330.603 140.655 331.208 140.029C331.468 139.717 331.793 139.463 332.159 139.287C332.526 139.11 332.926 139.014 333.333 139.005H343.328C343.89 139.002 344.446 139.117 344.961 139.343C345.476 139.568 345.938 139.899 346.317 140.315C346.716 140.71 347.032 141.181 347.247 141.7C347.462 142.219 347.572 142.775 347.57 143.337V192.03C347.566 193.134 347.128 194.193 346.352 194.978C346.007 195.383 345.579 195.71 345.097 195.936C344.615 196.161 344.09 196.281 343.557 196.287H334.663C333.965 196.308 333.268 196.266 332.578 196.163C332.154 196.071 331.745 195.923 331.361 195.722V195.722Z" fill="white"/>
<path d="M398.64 139.005C399.08 139.004 399.515 139.091 399.92 139.26C400.326 139.429 400.694 139.677 401.002 139.99C401.319 140.272 401.574 140.616 401.749 141.002C401.925 141.388 402.018 141.806 402.022 142.23V151.363C401.994 152.251 401.628 153.095 401 153.723C400.372 154.351 399.528 154.716 398.64 154.745H386.436V192.63C386.461 193.553 386.138 194.452 385.53 195.147C385.255 195.491 384.91 195.771 384.517 195.969C384.125 196.167 383.694 196.279 383.254 196.295H372.666C372.243 196.304 371.823 196.22 371.435 196.05C371.048 195.88 370.702 195.628 370.421 195.311C369.809 194.632 369.485 193.742 369.517 192.829L369.505 154.739H357.412C356.505 154.749 355.631 154.398 354.981 153.764C354.332 153.13 353.961 152.264 353.95 151.357V142.232C353.945 141.805 354.03 141.382 354.199 140.99C354.368 140.598 354.618 140.246 354.932 139.957C355.262 139.642 355.652 139.396 356.078 139.233C356.504 139.07 356.958 138.994 357.414 139.01L398.64 139.005Z" fill="white"/>
<path d="M139.393 155.291V193.114C139.393 193.532 139.475 193.945 139.635 194.331C139.795 194.717 140.029 195.067 140.324 195.362C140.619 195.658 140.97 195.892 141.355 196.052C141.741 196.211 142.155 196.294 142.572 196.294H163.605C164.023 196.294 164.436 196.211 164.822 196.052C165.207 195.892 165.558 195.658 165.853 195.362C166.148 195.067 166.383 194.717 166.542 194.331C166.702 193.945 166.784 193.532 166.784 193.114V182.565L139.507 155.291H139.393Z" fill="#0D184D"/>
<path d="M168.913 152.529L156.671 140.033C156.374 139.731 156.02 139.491 155.629 139.327C155.239 139.164 154.819 139.079 154.396 139.079H142.566C141.723 139.079 140.914 139.414 140.318 140.01C139.722 140.607 139.387 141.415 139.387 142.259V155.29H139.5L166.776 182.566L168.907 184.692V152.529H168.913Z" fill="#00378D"/>
<path d="M198.594 142.197V152.809L225.87 179.743L225.984 179.857V142.197C225.984 141.351 225.648 140.54 225.05 139.942C224.453 139.343 223.642 139.006 222.796 139.005H201.786C200.94 139.006 200.128 139.342 199.53 139.941C198.931 140.539 198.595 141.351 198.594 142.197V142.197Z" fill="#AED6D4"/>
<path d="M198.594 152.809V184.695L209.212 195.311C209.807 195.908 210.614 196.244 211.456 196.246L222.755 196.283C223.174 196.284 223.589 196.203 223.977 196.044C224.365 195.885 224.717 195.651 225.015 195.356C225.312 195.06 225.548 194.709 225.71 194.322C225.872 193.936 225.956 193.521 225.957 193.102L225.986 179.863L225.872 179.749L198.594 152.809Z" fill="#60A6D4"/>
<path d="M198.687 193.112L198.718 182.563L168.913 152.523V184.695L179.775 195.379C180.372 195.965 181.176 196.294 182.013 196.296H195.496C196.341 196.295 197.151 195.96 197.749 195.363C198.347 194.766 198.685 193.957 198.687 193.112V193.112Z" fill="#0062AE"/>
<path d="M184.683 139.072H171.887C171.07 139.101 170.298 139.453 169.74 140.05C169.182 140.648 168.884 141.442 168.911 142.259V152.521L196.733 182.616L198.718 184.747V152.809L186.789 140.011C186.522 139.717 186.197 139.483 185.834 139.321C185.472 139.159 185.08 139.074 184.683 139.072V139.072Z" fill="#20B5D8"/>
</svg>
