<svg width="24" height="24" viewBox="0 0 24 24" xmlns="http://www.w3.org/2000/svg">
    <g stroke="#504190" stroke-width="1.714" fill="none" fill-rule="evenodd" stroke-linecap="round" stroke-linejoin="round">
        <path d="M12.143 23.286a15.874 15.874 0 0 0-9.617-5.058A1.714 1.714 0 0 1 1 16.514v-13.8a1.714 1.714 0 0 1 1.954-1.697 15.943 15.943 0 0 1 9.189 5.006v17.263zM12.143 23.286a15.874 15.874 0 0 1 9.617-5.058 1.714 1.714 0 0 0 1.526-1.714v-13.8a1.714 1.714 0 0 0-1.955-1.697 15.943 15.943 0 0 0-9.188 5.006v17.263z"/>
    </g>
</svg>
