<?xml version="1.0" encoding="utf-8"?>
<!-- Generator: Adobe Illustrator 26.0.3, SVG Export Plug-In . SVG Version: 6.00 Build 0)  -->
<svg version="1.0" id="Layer_1" xmlns="http://www.w3.org/2000/svg" xmlns:xlink="http://www.w3.org/1999/xlink" x="0px" y="0px"
	 viewBox="0 0 879.9 575.4" style="enable-background:new 0 0 879.9 575.4;" xml:space="preserve">
<style type="text/css">
	.st0{fill:#00B7F1;}
</style>
<g id="Group_5253">
	<path id="Path_4313" class="st0" d="M240.3,246.2c21.2,0,29.5,9.8,29.5,22.3c0.2,7.2-3.9,13.9-10.4,16.9c8,2.9,13.2,10.5,12.9,19
		c0,13.4-8.5,23.2-30.3,23.2h-30.7v-81.4H240.3z M224.1,258.2v22.2h16.2c12.3,0,16.5-5,16.5-11c0-6.5-4.3-11.2-16.5-11.2
		L224.1,258.2z M224.1,291.6v24.1h17.8c13,0,17.4-4.8,17.4-12c0-6.9-4.4-12-17.4-12L224.1,291.6z M284.3,239.9h12.4v67
		c0,7.6,2.3,9.9,5.4,9.9c1.5,0.1,3-0.3,4.4-1l3.6,11c-3.1,1.2-6.4,1.8-9.6,1.8c-9.1,0-16.2-5.5-16.2-21.7L284.3,239.9z M370.5,325.7
		c-8.5,2.3-17.3,3.4-26.1,3.3c-15.4,0-26.7-7.7-26.7-27.2V265h12.4v37.6c0,11.6,6,14.5,15.2,14.5c4.2,0.2,8.5-0.2,12.6-1.2v-51h12.5
		L370.5,325.7z M438.6,301.1h-42.5v0.5c0,10.1,6.8,15.5,17.8,15.5c6.7,0.1,13.4-1,19.8-3.1l3.6,11.2c-7.5,2.6-15.4,3.9-23.4,3.8
		c-18.8,0-30.6-9.3-30.6-31.3V295c0-21.9,10.8-31.2,27.7-31.2s27.6,9.3,27.6,31.2L438.6,301.1z M396.1,291.6h29.7V291
		c0-10.5-5.8-15.4-14.8-15.4s-14.9,4.9-14.9,15.4V291.6z M477.9,296.1v31.6h-13v-31.3l-31.2-50.1h14.7l23.1,38.1l22.9-38.1H509
		L477.9,296.1z M501.4,295.4c0-22.4,11.9-31.6,28.2-31.6c16.3,0,28.2,9.1,28.2,31.6v2c0,22.4-12,31.6-28.2,31.6s-28.2-9.1-28.2-31.6
		V295.4z M545.1,295.4c0-15-5.8-19.8-15.5-19.8c-9.8,0-15.6,4.8-15.6,19.8v2c0,15,5.8,19.8,15.7,19.8c9.9,0,15.5-4.8,15.5-19.8
		L545.1,295.4z M570.1,267c8.4-2.3,17.2-3.4,25.9-3.3c15.4,0,26.8,7.6,26.8,27.2v36.7h-12.5v-37.6c0-11.6-6-14.5-15.2-14.5
		c-4.3-0.1-8.6,0.2-12.8,1.1v51h-12.4L570.1,267z M687.1,325.7c-7.8,2.2-15.8,3.3-23.8,3.3c-17.2,0-28.9-10.1-28.9-31.3v-2.5
		c0-21.7,12.4-31.3,29.3-31.3c3.8-0.1,7.5,0.6,11,1.9V240h12.4L687.1,325.7z M646.9,297.6c0,15.3,6.4,19.5,16.8,19.5
		c3.7,0.1,7.4-0.3,11-1.2v-38.2c-3.2-1.5-6.6-2.2-10.1-2.1c-10.4,0-17.7,4-17.7,19.5L646.9,297.6z M754.9,301.1h-42.5v0.5
		c0,10.1,6.8,15.5,17.8,15.5c6.7,0.1,13.4-1,19.8-3.1l3.6,11.2c-7.5,2.6-15.5,3.9-23.4,3.8c-18.8,0-30.6-9.3-30.6-31.3V295
		c0-21.9,10.8-31.2,27.7-31.2s27.6,9.3,27.6,31.2L754.9,301.1z M712.7,291.6h29.7V291c0-10.5-5.8-15.4-14.8-15.4
		s-14.9,4.9-14.9,15.4L712.7,291.6z M767.9,267c6.8-2.1,13.9-3.2,21-3.1c4.8-0.1,9.5,0.5,14.2,1.6l-3.8,11.4
		c-3.1-0.9-6.4-1.3-9.7-1.2c-3.2-0.1-6.3,0.3-9.4,1v51h-12.4L767.9,267z"/>
	<path id="Path_4314" class="st0" d="M128.2,236.4c-8.8,0-15.9,7.1-15.9,15.9c0,8.8,7.1,15.9,15.9,15.9s15.9-7.1,15.9-15.9
		C144.1,243.5,137,236.4,128.2,236.4C128.2,236.4,128.2,236.4,128.2,236.4z M128.2,339c8.8,0,15.9-7.1,15.9-15.9
		c0-8.8-7.1-15.9-15.9-15.9s-15.9,7.1-15.9,15.9C112.3,331.9,119.4,339,128.2,339L128.2,339z M131.5,287.7c0,1.5,0.9,2.9,2.2,3.5
		l0,0l23,10.9l0,0c7.9,3.7,17.4,0.3,21.1-7.6c3.7-7.9,0.3-17.4-7.6-21.1c-4.3-2-9.2-2-13.5,0l0,0l-23,10.9l0,0
		C132.4,284.8,131.5,286.2,131.5,287.7L131.5,287.7z M124.8,287.7c0-1.5-0.9-2.9-2.2-3.5l0,0l-23-10.9l0,0
		c-7.9-3.7-17.4-0.3-21.1,7.6c-3.7,7.9-0.3,17.4,7.6,21.1c4.3,2,9.2,2,13.5,0l0,0l23-10.9l0,0C123.9,290.6,124.8,289.2,124.8,287.7z
		"/>
</g>
</svg>
