<svg xmlns="http://www.w3.org/2000/svg" fill="none" viewBox="-0.5 -0.5 20 20" id="Serving-Dome--Streamline-Sharp.svg" height="20" width="20"><desc>Serving Dome Streamline Icon: https://streamlinehq.com</desc><g id="Solid/02-Map-Travel/05-Hotel/serving-dome--cook-tool-dome-kitchen-drink-serving-platter-dish-tools-food-cooking-hotel"><path id="Union" fill="#000000" fill-rule="evenodd" d="M10.664937500000002 2.9062875000000004C10.664937500000002 3.5294083333333335 10.17545 4.038291666666667 9.560087500000002 4.069404166666667C11.801770833333334 4.085158333333333 13.948216666666669 4.982433333333334 15.534558333333333 6.5687750000000005C17.135070833333337 8.169208333333335 18.034166666666668 10.339958333333334 18.034166666666668 12.603333333333335V13.379166666666666H0.9658333333333334V12.603333333333335C0.9658333333333334 10.339958333333334 1.8650083333333334 8.169208333333335 3.465441666666667 6.5687750000000005C5.052020833333334 4.982195833333334 7.1988625 4.084841666666667 9.440941666666667 4.069404166666667C8.825658333333333 4.0382125 8.33625 3.5294083333333335 8.33625 2.9062875000000004C8.33625 2.2632958333333337 8.857404166666667 1.7419833333333337 9.500316666666668 1.741666666666667C10.143466666666667 1.741666666666667 10.664937500000002 2.2630583333333334 10.664937500000002 2.9062875000000004ZM18.810000000000002 14.930833333333334H0.19V17.258333333333336H18.810000000000002V14.930833333333334Z" clip-rule="evenodd" stroke-width="1"></path></g></svg>