<svg width="34" height="34" viewBox="0 0 34 34" fill="none" xmlns="http://www.w3.org/2000/svg">
<path d="M14.3955 0H1.2828C0.94254 0 0.616337 0.13953 0.375657 0.387689C0.135198 0.636052 0 0.972732 0 1.3239V14.8568C0 15.208 0.135204 15.5446 0.375657 15.793C0.616308 16.0412 0.942534 16.1807 1.2828 16.1807H14.3955C14.7358 16.1807 15.062 16.0412 15.3026 15.793C15.5431 15.5446 15.6783 15.208 15.6783 14.8568V1.3239C15.6783 0.972744 15.5431 0.636088 15.3026 0.387929C15.062 0.13953 14.7358 0 14.3955 0Z" fill="#50438E"/>
<path d="M25.367 34C30.1348 34 34 30.0111 34 25.0903C34 20.1697 30.135 16.1807 25.367 16.1807C20.5992 16.1807 16.734 20.1698 16.734 25.0903C16.734 30.0109 20.5993 34 25.367 34Z" fill="#50438E"/>
<path d="M10.0857 23.3569L5.52109 18.5778L1.15498 23.3569H4.26418V30.0477H12.8641V27.2485H6.97646V23.3569H10.0857Z" fill="#50438E"/>
<path d="M26.8224 12.1602L22.2578 7.38106H25.367V3.48949H19.4794V0.690298H28.0793V7.38106H31.1885L26.8224 12.1602Z" fill="#50438E"/>
</svg>
