<svg width="36" height="34" viewBox="0 0 36 34" fill="none" xmlns="http://www.w3.org/2000/svg">
<path fill-rule="evenodd" clip-rule="evenodd" d="M19.5 0C20.328 0 21 0.672 21 1.5V4.5H28.5C29.328 4.5 30 5.172 30 6V13.157C28.4798 12.9161 26.9262 12.9524 25.4161 13.2658V13.267C25.3024 14.0079 25.0215 14.7139 24.5943 15.3327C24.4182 15.5877 24.2191 15.8253 24 16.0426V7.5H21V17.4789C20.9348 17.4863 20.8694 17.4925 20.8038 17.4974C20.0482 17.5538 19.2894 17.4411 18.5839 17.1674C17.4247 18.4523 16.5452 19.9595 16 21.5952C16.5923 22.0631 17.0705 22.6571 17.3989 23.333C17.7273 24.0089 17.8975 24.7494 17.8969 25.4994C17.8972 26.0098 17.8185 26.5158 17.6646 27H1.5C0.672 27 0 26.328 0 25.5V6C0 5.172 0.672 4.5 1.5 4.5H9V1.5C9 0.672 9.672 0 10.5 0H19.5ZM9 7.5H6V24H9V7.5ZM18 3H12V4.5H18V3Z" fill="#50438E"/>
<path fill-rule="evenodd" clip-rule="evenodd" d="M29.7217 17.179C28.5858 16.9398 27.4131 16.9403 26.2774 17.1807C26.2016 17.6845 26.0143 18.1655 25.7295 18.5862C25.4447 19.007 25.0697 19.3576 24.6323 19.612C24.195 19.8673 23.7063 20.0198 23.2025 20.0582C22.6988 20.0966 22.1929 20.0199 21.7226 19.8338C20.9498 20.7075 20.3634 21.7324 20 22.8447C20.3949 23.1629 20.7136 23.5668 20.9326 24.0264C21.1515 24.4861 21.265 24.9896 21.2646 25.4996C21.2649 26.0091 21.1516 26.5122 20.933 26.9715C20.7143 27.4309 20.396 27.8346 20.0017 28.1527C20.3629 29.2662 20.9485 30.2922 21.7217 31.1662C22.1921 30.9798 22.6981 30.9029 23.202 30.9412C23.7059 30.9794 24.1948 31.1318 24.6323 31.3871C25.0704 31.6419 25.4459 31.9931 25.7309 32.4147C26.0158 32.8362 26.2029 33.3172 26.2783 33.8218C27.4143 34.0605 28.587 34.0594 29.7226 33.8184C29.7984 33.3146 29.9857 32.8345 30.2705 32.4138C30.5553 31.993 30.9303 31.6424 31.3677 31.388C31.805 31.1327 32.2937 30.9802 32.7975 30.9418C33.3012 30.9034 33.8071 30.9801 34.2774 31.1662C35.0502 30.2925 35.6366 29.2676 36 28.1553C35.2288 27.5323 34.7354 26.5746 34.7354 25.5004C34.7348 24.9906 34.848 24.4871 35.0667 24.0275C35.2853 23.5679 35.6037 23.1639 35.9983 22.8456C35.637 21.7324 35.0514 20.7067 34.2783 19.833C33.8078 20.0192 33.3018 20.096 32.7979 20.0576C32.294 20.0192 31.8051 19.8666 31.3677 19.6112C30.9299 19.3567 30.5546 19.0058 30.2697 18.5848C29.9847 18.1637 29.7974 17.6832 29.7217 17.179ZM29.786 27.3032C29.3123 27.7813 28.6699 28.0499 28 28.0499C27.3301 28.0499 26.6877 27.7813 26.214 27.3032C25.7403 26.825 25.4742 26.1766 25.4742 25.5004C25.4742 24.8243 25.7403 24.1758 26.214 23.6977C26.6877 23.2196 27.3301 22.951 28 22.951C28.6699 22.951 29.3123 23.2196 29.786 23.6977C30.2597 24.1758 30.5258 24.8243 30.5258 25.5004C30.5258 26.1766 30.2597 26.825 29.786 27.3032Z" fill="#50438E"/>
</svg>
