<svg width="24" height="24" viewBox="0 0 24 24" xmlns="http://www.w3.org/2000/svg">
    <g transform="translate(2 1)" stroke="#504190" stroke-width="1.714" fill="none" fill-rule="evenodd" stroke-linecap="round" stroke-linejoin="round">
        <path d="m7.196 3 .738-1.903A1.714 1.714 0 0 1 9.528 0h1.406c.706.002 1.34.438 1.594 1.097L13.265 3l2.503 1.44 2.023-.309a1.714 1.714 0 0 1 1.714.84l.686 1.2c.36.612.305 1.383-.137 1.938l-1.252 1.594v2.88l1.286 1.594c.442.555.497 1.325.137 1.937l-.686 1.2a1.714 1.714 0 0 1-1.714.84l-2.023-.308-2.503 1.44-.737 1.903a1.714 1.714 0 0 1-1.594 1.097h-1.44a1.714 1.714 0 0 1-1.594-1.097l-.738-1.903-2.502-1.44-2.023.308a1.714 1.714 0 0 1-1.715-.84l-.685-1.2a1.714 1.714 0 0 1 .137-1.937l1.251-1.594v-2.88L.374 8.109A1.714 1.714 0 0 1 .236 6.17l.686-1.2a1.714 1.714 0 0 1 1.714-.84l2.023.309L7.196 3z"/>
        <circle cx="10.231" cy="11.143" r="5.143"/>
        <path d="M10.23 6v5.143h5.144M10.231 11.143l-3.635 3.634"/>
    </g>
</svg>
