<svg xmlns="http://www.w3.org/2000/svg" xmlns:xlink="http://www.w3.org/1999/xlink" width="150" zoomAndPan="magnify" viewBox="0 0 150 149.999998" height="149.999998" preserveAspectRatio="xMidYMid meet" version="1.0"><defs><clipPath id="id1"><path d="M 2.753906 1 L 147.503906 1 L 147.503906 147 L 2.753906 147 Z M 2.753906 1 " clip-rule="nonzero"/></clipPath></defs><g clip-path="url(#id1)"><path fill="rgb(100%, 99.609375%, 99.609375%)" d="M 75.746094 1.757812 C 36.132812 1.757812 2.757812 33.644531 2.757812 73.011719 C 2.757812 74.273438 2.789062 146.789062 2.789062 146.789062 L 75.746094 146.726562 C 115.386719 146.726562 147.503906 113.605469 147.503906 74.242188 C 147.503906 34.875 115.386719 1.757812 75.746094 1.757812 Z M 75.128906 115.710938 C 68.863281 115.710938 62.886719 114.320312 57.554688 111.792969 L 31.351562 118.300781 L 38.75 94.023438 C 35.585938 88.160156 33.773438 81.429688 33.773438 74.273438 C 33.773438 51.386719 52.289062 32.835938 75.128906 32.835938 C 97.972656 32.835938 116.488281 51.386719 116.488281 74.273438 C 116.488281 97.160156 97.972656 115.710938 75.128906 115.710938 Z M 75.128906 115.710938 " fill-opacity="1" fill-rule="nonzero"/></g></svg>