<svg width="30" height="29" viewBox="0 0 30 29" fill="none" xmlns="http://www.w3.org/2000/svg">
<path fill-rule="evenodd" clip-rule="evenodd" d="M16.5001 26V23H28.5121C29.3176 23 30.0001 22.3235 30.0001 21.4895V2.0105C30.0001 1.1735 29.3341 0.5 28.5121 0.5H1.48806C0.682561 0.5 6.11189e-05 1.1765 6.11189e-05 2.0105V21.4895C-0.00171872 21.6865 0.0353906 21.8818 0.109262 22.0644C0.183134 22.247 0.292315 22.4133 0.430548 22.5536C0.568781 22.6939 0.733349 22.8056 0.914818 22.8822C1.09629 22.9588 1.29109 22.9988 1.48806 23H13.5001V26H7.50006V29H22.5001V26H16.5001ZM13.6364 6.63636H16.3636V10.2727H20V13H16.3636V16.6364H13.6364V13H10V10.2727H13.6364V6.63636Z" fill="#50438E"/>
</svg>
