<svg width="28" height="29" viewBox="0 0 28 29" fill="none" xmlns="http://www.w3.org/2000/svg">
<path d="M27.5 10.25V14.75C27.5 18.4775 21.455 21.5 14 21.5C6.545 21.5 0.5 18.4775 0.5 14.75V10.25C0.5 13.9775 6.545 17 14 17C21.455 17 27.5 13.9775 27.5 10.25ZM0.5 17.75C0.5 21.4775 6.545 24.5 14 24.5C21.455 24.5 27.5 21.4775 27.5 17.75V22.25C27.5 25.9775 21.455 29 14 29C6.545 29 0.5 25.9775 0.5 22.25V17.75ZM14 14C6.545 14 0.5 10.9775 0.5 7.25C0.5 3.5225 6.545 0.5 14 0.5C21.455 0.5 27.5 3.5225 27.5 7.25C27.5 10.9775 21.455 14 14 14Z" fill="#50438E"/>
</svg>
