<?xml version="1.0" encoding="utf-8"?>
<!-- Generator: Adobe Illustrator 19.2.1, SVG Export Plug-In . SVG Version: 6.00 Build 0)  -->
<svg version="1.1" id="layer" xmlns="http://www.w3.org/2000/svg" xmlns:xlink="http://www.w3.org/1999/xlink" x="0px" y="0px"
	 viewBox="0 0 652 652" style="enable-background:new 0 0 652 652;" xml:space="preserve">
<style type="text/css">
	.st0{fill:#008AB1;}
</style>
<g>
	<g>
		<g>
			<g>
				<path class="st0" d="M487,335.7v16.2h-9.1c-15.4,0-22.9-8-22.9-26v-28.3c0-8.8-2.7-17.9-13.9-17.9c-11.2,0-14.7,9.1-14.7,17.9
					v54.3h-19.5v-54.3c0-8.8-3.9-17.9-15.3-17.9c-11.4,0-15.1,9.1-15.1,17.9v54.3h-19.3V297c0-21.5,13.8-34.7,34.3-34.7
					c10.4,0,19.1,3.7,25.1,10.2c6-6.4,14.6-10.2,25-10.2c19,0,32.5,12.2,32.5,34.7v29.1c0,6.6,3,9.6,8.7,9.6H487z M336.1,338.1
					c-10.7,9-22.2,15.1-38.2,15.1c-29,0-46.1-18.9-46.1-45.5c0-26.1,18.4-45.5,44.4-45.5c27,0,43.5,21,43.5,47
					c0,3.3-0.3,6.5-0.3,6.5h-67.6c2.5,12.8,10.3,20.8,26,20.8c11,0,18.8-4.4,25.7-10.7L336.1,338.1z M271.7,300.4h48
					c-2.3-13.1-10.8-21.6-23.6-21.6C282.9,278.8,274.5,287.6,271.7,300.4 M210.7,325.1c0,18.9,7.7,26.8,23.8,26.8h8.8v-16.6h-4.1
					c-5.9,0-9.2-2.9-9.2-10.1l0-108.9h-19.2V325.1z M156.7,335.2h-0.6c-4.9,0-7.7-7.3-12.5-20.6l-8.1-22.3
					c-7.6-20.7-15.3-30.1-32.8-30.1c-14.8,0-22.3,8.9-31.5,21.3l-6.7,9l-21.4-28.8h-23l33,43.3l-12.9,17.3
					c-6.6,8.9-10.7,11.5-16.3,11.5h-3.9v16.2h8.2c9.5,0,16.1-3.2,21.8-11.2l14.1-19.8l22.7,31h23.1l-34.4-45.4l8.6-11.4
					c7.8-10.5,11.5-15.4,18.1-15.4c7,0,10.5,6.4,16.4,21.5l9.8,25.1c5.6,14.7,11.2,25.5,21.1,25.5l1.3,0l-5.1,12.7
					c-4,10-7.7,16.2-18.1,16.2h-4.5v16.5c0,0,3.6,0,6.6,0c15.4,0,26.4-7.6,33.6-27.5l38.1-106.1h-20.6L156.7,335.2z"/>
				<path class="st0" d="M216.3,422H234v4.9h-23.3v-39.7h5.6V422z M262.6,415.2h-21.1c0.2,4.5,4,8.1,8.6,8.1c3.6,0,6.2-1.8,7.7-4
					l3.7,3c-2.9,3.7-6.7,5.4-11.4,5.4c-8.1,0-14-5.6-14-14c0-8.3,6-14.1,13.7-14.1c7.9,0,12.8,5.3,12.8,13.8
					C262.7,413.9,262.7,414.6,262.6,415.2 M257.4,411.2c-0.1-4.2-2.6-7.5-7.5-7.5c-4.5,0-8,3.4-8.4,7.5H257.4z M282.5,404.6h-7.1
					v13.8c0,3.2,1.1,4.5,3.8,4.5c1,0,2.2-0.2,3.1-0.7l0.2,4.3c-1.2,0.4-2.9,0.7-4.5,0.7c-5,0-7.7-2.8-7.7-8.3v-14.4h-5.1v-4.3h5.1
					v-7.6h5.2v7.6h7.1V404.6z M290.7,401.2h-4.4l3.9-14h5.2L290.7,401.2z M309.7,407c-1.2-1.9-3.5-3.3-6.2-3.3
					c-2.4,0-4.9,0.9-4.9,3.5c0,2.2,2,3.1,6,4c5,1.1,8.9,3.2,8.9,7.9c0,6.3-5.2,8.6-10.6,8.6c-4,0-8.2-1.6-10.7-4.8l3.8-3.2
					c1.4,2.1,4.1,3.7,7.1,3.7c2.6,0,5.3-0.9,5.3-3.9c0-2.5-2.4-3.4-7-4.4c-3.5-0.8-7.7-2.4-7.7-7.4c0-5.7,5-8.1,10-8.1
					c3.8,0,7.7,1.5,9.6,4.4L309.7,407z M352.7,394.5c-1.6-2.2-4.4-3.7-7.7-3.7c-3.6,0-7.7,2-7.7,6.4c0,4.3,3.6,5.5,8.1,7
					c5.3,1.7,11.7,3.7,11.7,11.6c0,8.2-6.7,12-13.7,12c-5,0-10-2-13.1-5.8l4.3-3.7c1.8,2.8,5.2,4.7,8.9,4.7c3.7,0,8-2.1,8-6.8
					c0-4.8-4.4-6.1-9.4-7.7c-5.1-1.6-10.3-3.9-10.3-11.2c0-7.9,7.1-11.3,13.6-11.3c4.6,0,8.9,1.8,11.4,4.5L352.7,394.5z
					 M375.8,427.6c-8.1,0-14.3-5.9-14.3-14.1c0-8.2,6.2-14,14.3-14c8.1,0,14.4,5.8,14.4,14C390.2,421.7,384,427.6,375.8,427.6
					 M375.8,404c-5.7,0-8.9,4.5-8.9,9.6c0,5,3.2,9.6,8.9,9.6c5.7,0,8.9-4.6,8.9-9.6C384.7,408.5,381.6,404,375.8,404 M400.6,426.9
					h-5.3v-42.4h5.3v38V426.9z M421.2,426.9h-5.7l-10.8-26.6h5.8l7.8,20.9h0.1l7.9-20.9h5.6L421.2,426.9z M460,415.2h-21.1
					c0.2,4.5,4,8.1,8.6,8.1c3.6,0,6.2-1.8,7.7-4l3.7,3c-2.9,3.7-6.7,5.4-11.5,5.4c-8.1,0-14-5.6-14-14c0-8.3,6-14.1,13.7-14.1
					c7.9,0,12.8,5.3,12.8,13.8C460.1,413.9,460.1,414.6,460,415.2 M454.8,411.2c-0.1-4.2-2.6-7.5-7.5-7.5c-4.5,0-8,3.4-8.4,7.5
					H454.8z M488,418.8L488,418.8l9.4-31.6h6.1l9.2,31.6h0.1l8.8-31.6h5.9l-11.7,39.7h-5.8l-9.6-31.9h-0.1l-9.6,31.9h-5.8
					l-11.7-39.7h6L488,418.8z M544.5,409.7c0-3.9-2.6-5.8-6.6-5.8c-3,0-5.8,1.3-7.6,3.1l-2.8-3.4c2.6-2.5,6.6-4,10.9-4
					c7.6,0,11.1,4.5,11.1,10.4v11.6c0,1.8,0.1,4,0.4,5.3h-4.8c-0.3-1.2-0.4-2.6-0.4-3.8h-0.2c-1.9,2.9-4.9,4.5-8.9,4.5
					c-4.2,0-9.7-2.1-9.7-8.2c0-8,9.5-9,18.5-9V409.7z M543.3,414.2c-5.2,0-11.8,0.6-11.8,5c0,3.1,2.8,4.2,5.4,4.2
					c4.9,0,7.7-3.3,7.7-7.8v-1.4H543.3z M570,404.6h-7.1v13.8c0,3.2,1.1,4.5,3.8,4.5c1,0,2.2-0.2,3.1-0.7l0.2,4.3
					c-1.2,0.4-2.9,0.7-4.5,0.7c-5,0-7.7-2.8-7.7-8.3v-14.4h-5.1v-4.3h5.1v-7.6h5.2v7.6h7.1V404.6z M599.2,415.2h-21.1
					c0.2,4.5,4,8.1,8.6,8.1c3.6,0,6.2-1.8,7.7-4l3.7,3c-2.9,3.7-6.7,5.4-11.5,5.4c-8.1,0-14-5.6-14-14c0-8.3,6-14.1,13.7-14.1
					c7.9,0,12.8,5.3,12.8,13.8C599.3,413.9,599.3,414.6,599.2,415.2 M594,411.2c-0.1-4.2-2.6-7.5-7.5-7.5c-4.5,0-8,3.4-8.4,7.5H594z
					 M604.5,400.3h5c0.1,1.4,0.2,3.4,0.2,4.5h0.2c1.5-3.1,4.5-5.2,8.1-5.2c0.7,0,1.5,0,2.1,0.2l-0.2,4.9c-0.7-0.2-1.6-0.3-2.4-0.3
					c-5,0-7.5,4.1-7.5,8.5v14h-5.3V406C604.7,404.6,604.6,402,604.5,400.3"/>
			</g>
		</g>
	</g>
</g>
</svg>
