<svg width="36" height="36" viewBox="0 0 36 36" fill="none" xmlns="http://www.w3.org/2000/svg">
<path d="M18 1.74648e-05C13.6782 -0.00601175 9.49961 1.5492 6.2334 4.37941L8.028 7.61041C10.0646 5.65543 12.631 4.34221 15.4079 3.83405C18.1849 3.32588 21.05 3.64517 23.6469 4.75224C26.2439 5.8593 28.4581 7.70529 30.0144 10.0607C31.5706 12.4161 32.4002 15.1769 32.4 18H27L32.742 28.332C34.794 25.4088 36 21.8448 36 18C36 8.05861 27.9414 1.74648e-05 18 1.74648e-05Z" fill="#50438E"/>
<path d="M18 36C22.3218 36.006 26.5004 34.4508 29.7666 31.6206L27.972 28.3896C25.9354 30.3446 23.369 31.6578 20.5921 32.166C17.8151 32.6741 14.95 32.3548 12.3531 31.2478C9.75612 30.1407 7.54186 28.2947 5.98561 25.9393C4.42935 23.5839 3.59977 20.8231 3.6 18H9L3.258 7.66801C1.206 10.5912 0 14.1552 0 18C0 27.9414 8.0586 36 18 36Z" fill="#50438E"/>
<path fill-rule="evenodd" clip-rule="evenodd" d="M19.7217 10.1685C18.5858 9.9433 17.4131 9.94384 16.2774 10.1701C16.2016 10.6443 16.0143 11.0969 15.7295 11.4929C15.4447 11.8889 15.0697 12.2189 14.6323 12.4584C14.195 12.6986 13.7063 12.8422 13.2025 12.8783C12.6988 12.9145 12.1929 12.8423 11.7226 12.6671C10.9498 13.4895 10.3634 14.4541 10 15.5009C10.3949 15.8004 10.7136 16.1805 10.9326 16.6131C11.1515 17.0457 11.265 17.5196 11.2646 17.9996C11.2649 18.4792 11.1516 18.9527 10.933 19.385C10.7143 19.8173 10.396 20.1972 10.0017 20.4967C10.3629 21.5447 10.9485 22.5103 11.7217 23.3328C12.1921 23.1575 12.6981 23.0851 13.202 23.1211C13.7059 23.1571 14.1948 23.3006 14.6323 23.5408C15.0704 23.7806 15.4459 24.1112 15.7309 24.5079C16.0158 24.9047 16.2029 25.3574 16.2783 25.8323C17.4143 26.057 18.587 26.0559 19.7226 25.8291C19.7984 25.3549 19.9857 24.9031 20.2705 24.5071C20.5553 24.1111 20.9303 23.7811 21.3677 23.5416C21.805 23.3014 22.2937 23.1578 22.7975 23.1217C23.3012 23.0855 23.8071 23.1577 24.2774 23.3328C25.0502 22.5105 25.6366 21.5459 26 20.4991C25.2288 19.9128 24.7354 19.0114 24.7354 18.0004C24.7348 17.5205 24.848 17.0467 25.0667 16.6141C25.2853 16.1816 25.6037 15.8013 25.9983 15.5017C25.637 14.454 25.0514 13.4886 24.2783 12.6663C23.8078 12.8416 23.3018 12.9138 22.7979 12.8777C22.294 12.8416 21.8051 12.698 21.3677 12.4576C20.9299 12.2181 20.5546 11.8879 20.2697 11.4915C19.9847 11.0952 19.7974 10.643 19.7217 10.1685ZM19.786 19.6971C19.3123 20.1471 18.6699 20.3999 18 20.3999C17.3301 20.3999 16.6877 20.1471 16.214 19.6971C15.7403 19.2471 15.4742 18.6368 15.4742 18.0004C15.4742 17.364 15.7403 16.7537 16.214 16.3037C16.6877 15.8537 17.3301 15.6009 18 15.6009C18.6699 15.6009 19.3123 15.8537 19.786 16.3037C20.2597 16.7537 20.5258 17.364 20.5258 18.0004C20.5258 18.6368 20.2597 19.2471 19.786 19.6971Z" fill="#50438E"/>
</svg>
