<svg width="28" height="28" viewBox="0 0 28 28" fill="none" xmlns="http://www.w3.org/2000/svg">
<path d="M14 12.6C15.8565 12.6 17.637 13.3375 18.9497 14.6503C20.2625 15.963 21 17.7435 21 19.6V28H7V19.6C7 17.7435 7.7375 15.963 9.05025 14.6503C10.363 13.3375 12.1435 12.6 14 12.6ZM4.6032 16.8084C4.3804 17.5599 4.24879 18.3355 4.2112 19.1184L4.2 19.6V28H1.27844e-07V21.7C-0.00027553 20.4926 0.44524 19.3276 1.25109 18.4285C2.05694 17.5294 3.16638 16.9594 4.3666 16.828L4.6046 16.8084H4.6032ZM23.3968 16.8084C24.6427 16.8843 25.8126 17.4327 26.668 18.3417C27.5234 19.2507 27.9998 20.4518 28 21.7V28H23.8V19.6C23.8 18.6298 23.66 17.6932 23.3968 16.8084ZM4.9 8.4C5.82826 8.4 6.7185 8.76875 7.37487 9.42513C8.03125 10.0815 8.4 10.9717 8.4 11.9C8.4 12.8283 8.03125 13.7185 7.37487 14.3749C6.7185 15.0313 5.82826 15.4 4.9 15.4C3.97174 15.4 3.0815 15.0313 2.42513 14.3749C1.76875 13.7185 1.4 12.8283 1.4 11.9C1.4 10.9717 1.76875 10.0815 2.42513 9.42513C3.0815 8.76875 3.97174 8.4 4.9 8.4ZM23.1 8.4C24.0283 8.4 24.9185 8.76875 25.5749 9.42513C26.2313 10.0815 26.6 10.9717 26.6 11.9C26.6 12.8283 26.2313 13.7185 25.5749 14.3749C24.9185 15.0313 24.0283 15.4 23.1 15.4C22.1717 15.4 21.2815 15.0313 20.6251 14.3749C19.9687 13.7185 19.6 12.8283 19.6 11.9C19.6 10.9717 19.9687 10.0815 20.6251 9.42513C21.2815 8.76875 22.1717 8.4 23.1 8.4ZM14 0C15.4852 0 16.9096 0.589998 17.9598 1.6402C19.01 2.69041 19.6 4.11479 19.6 5.6C19.6 7.08521 19.01 8.50959 17.9598 9.5598C16.9096 10.61 15.4852 11.2 14 11.2C12.5148 11.2 11.0904 10.61 10.0402 9.5598C8.99 8.50959 8.4 7.08521 8.4 5.6C8.4 4.11479 8.99 2.69041 10.0402 1.6402C11.0904 0.589998 12.5148 0 14 0Z" fill="#50438E"/>
</svg>
