<svg width="36" height="36" viewBox="0 0 36 36" fill="none" xmlns="http://www.w3.org/2000/svg">
<path d="M28.8 9.71997L35.9999 2.52L33.48 7.49893e-05L26.28 7.20005L23.7601 4.68012C22.3202 3.24026 20.1601 3.24026 18.7203 4.68012L13.14 10.0801L15.6599 12.6L21.2399 7.20005L23.7598 9.71997L21.6 11.8801L24.1199 14.4L26.28 12.2399L28.8 14.7601L14.76 28.8L12.2401 26.2801L14.3999 24.12L11.88 21.6001L9.7199 23.7602L7.19997 21.24L12.78 15.66L10.08 13.14L4.49998 18.7201C3.06012 20.1599 3.06012 22.3201 4.49998 23.7599L7.19997 26.2801L0 33.4801L2.51993 36L9.7199 28.8L12.2398 31.32C12.96 32.0399 13.86 32.4 14.76 32.4C15.66 32.4 16.56 32.0399 17.2799 31.32L31.3199 17.28C32.0398 16.7399 32.3999 15.8399 32.3999 14.7601C32.3999 13.8601 32.0398 12.9601 31.3199 12.2402L28.8 9.71997Z" fill="#50438E"/>
<path d="M0 10.7996H5.39998V14.3996H0V10.7996Z" fill="#50438E"/>
<path d="M5.49063 2.93412L9.30886 6.75236L6.76329 9.29793L2.94505 5.4797L5.49063 2.93412Z" fill="#50438E"/>
<path d="M10.7996 0H14.3996V5.39998H10.7996V0Z" fill="#50438E"/>
</svg>
