<svg width="16" height="16" viewBox="0 0 16 16" xmlns="http://www.w3.org/2000/svg">
    <path d="M15.848 6.675c-.045-.037-.446-.341-1.306-.341-.223 0-.454.022-.676.06-.163-1.136-1.106-1.685-1.144-1.714l-.23-.134-.149.215c-.185.289-.326.616-.407.949-.156.646-.06 1.254.267 1.774-.394.222-1.032.274-1.166.282H.498a.497.497 0 0 0-.497.498c-.014.92.14 1.84.46 2.708.363.95.905 1.655 1.603 2.085.786.482 2.07.757 3.517.757.652 0 1.306-.06 1.952-.179a8.045 8.045 0 0 0 2.552-.927 6.995 6.995 0 0 0 1.737-1.425c.84-.942 1.337-1.996 1.7-2.93h.148c.913 0 1.477-.364 1.788-.677a1.98 1.98 0 0 0 .476-.698L16 6.786l-.152-.111zm-6.523.786h1.41a.126.126 0 0 0 .126-.126V6.073a.126.126 0 0 0-.126-.126h-1.41a.126.126 0 0 0-.127.126v1.262c.008.074.06.126.127.126zM7.358 3.848h1.41a.126.126 0 0 0 .127-.126V2.46a.13.13 0 0 0-.126-.127h-1.41a.126.126 0 0 0-.127.127v1.262a.13.13 0 0 0 .126.126zm0 1.81h1.41a.13.13 0 0 0 .127-.126V4.27a.13.13 0 0 0-.126-.127h-1.41a.126.126 0 0 0-.127.127v1.262c0 .067.059.126.126.126zm-1.952 0h1.41a.13.13 0 0 0 .127-.126V4.27a.126.126 0 0 0-.126-.127h-1.41a.126.126 0 0 0-.127.127v1.262c0 .067.052.126.126.126zm-1.982 0h1.41a.13.13 0 0 0 .127-.126V4.27a.126.126 0 0 0-.126-.127h-1.41a.126.126 0 0 0-.127.127v1.262c.008.067.06.126.126.126zM7.358 7.46h1.41a.126.126 0 0 0 .127-.126V6.073a.126.126 0 0 0-.126-.126h-1.41a.126.126 0 0 0-.127.126v1.262c0 .074.059.126.126.126zm-1.952 0h1.41a.126.126 0 0 0 .127-.126V6.073a.126.126 0 0 0-.126-.126h-1.41a.126.126 0 0 0-.127.126v1.262c0 .074.052.126.126.126zm-1.982 0h1.41a.126.126 0 0 0 .127-.126V6.073a.126.126 0 0 0-.126-.126h-1.41a.126.126 0 0 0-.127.126v1.262c.008.074.06.126.126.126zm-1.944 0h1.41a.126.126 0 0 0 .127-.126V6.073a.126.126 0 0 0-.126-.126H1.48a.126.126 0 0 0-.127.126v1.262c.008.074.06.126.126.126z" fill="#504190" fill-rule="nonzero"/>
</svg>
