<svg width="23" height="23" viewBox="0 0 23 23" fill="none" xmlns="http://www.w3.org/2000/svg">
<path d="M18.6874 7.18755L17.2595 8.61547L14.3845 5.74047L15.8124 4.31255C16.2149 3.91005 16.7324 3.71838 17.2499 3.71838C17.7674 3.71838 18.2849 3.91005 18.6874 4.31255C19.4829 5.10797 19.4829 6.39213 18.6874 7.18755Z" fill="url(#paint0_linear_54_1307)"/>
<path d="M16.5887 9.29578L6.22913 19.6458C5.43371 20.4412 4.14955 20.4412 3.35413 19.6458C2.55871 18.8504 2.55871 17.5662 3.35413 16.7708L13.7137 6.42078L16.5887 9.29578Z" fill="url(#paint1_linear_54_1307)"/>
<path d="M9.53533 3.35424L9.92825 2.02216C9.96658 1.89758 9.92825 1.76341 9.842 1.66758C9.75575 1.57174 9.60241 1.53341 9.47783 1.57174L8.14575 1.96466L6.81366 1.57174C6.68908 1.53341 6.55491 1.57174 6.45908 1.65799C6.36325 1.75383 6.3345 1.88799 6.37283 2.01258L6.75616 3.35424L6.36325 4.68633C6.32491 4.81091 6.36325 4.94508 6.4495 5.04091C6.54533 5.13674 6.6795 5.16549 6.80408 5.12716L8.14575 4.74383L9.47783 5.13674C9.51616 5.14633 9.54491 5.15591 9.58325 5.15591C9.67908 5.15591 9.76533 5.11758 9.842 5.05049C9.93783 4.95466 9.96658 4.82049 9.92825 4.69591L9.53533 3.35424Z" fill="url(#paint2_linear_54_1307)"/>
<path d="M5.70208 9.10424L6.095 7.77216C6.13333 7.64758 6.095 7.51341 6.00875 7.41758C5.91291 7.32174 5.77875 7.29299 5.65416 7.33133L4.3125 7.71466L2.98041 7.32174C2.85583 7.28341 2.72166 7.32174 2.62583 7.40799C2.53 7.50383 2.50125 7.63799 2.53958 7.76258L2.92291 9.10424L2.53 10.4363C2.49166 10.5609 2.53 10.6951 2.61625 10.7909C2.71208 10.8867 2.84625 10.9155 2.97083 10.8772L4.30291 10.4842L5.635 10.8772C5.66375 10.8867 5.70208 10.8867 5.74041 10.8867C5.83625 10.8867 5.9225 10.8484 5.99916 10.7813C6.095 10.6855 6.12375 10.5513 6.08541 10.4267L5.70208 9.10424Z" fill="url(#paint3_linear_54_1307)"/>
<path d="M20.0771 13.8958L20.47 12.5637C20.5083 12.4391 20.47 12.305 20.3837 12.2091C20.2879 12.1133 20.1537 12.0845 20.0291 12.1229L18.6971 12.5158L17.365 12.1229C17.2404 12.0845 17.1062 12.1229 17.0104 12.2091C16.9146 12.305 16.8858 12.4391 16.9241 12.5637L17.3171 13.8958L16.9241 15.2279C16.8858 15.3525 16.9241 15.4866 17.0104 15.5825C17.1062 15.6783 17.2404 15.707 17.365 15.6687L18.6971 15.2758L20.0291 15.6687C20.0579 15.6783 20.0962 15.6783 20.1346 15.6783C20.2304 15.6783 20.3166 15.64 20.3933 15.5729C20.4891 15.477 20.5179 15.3429 20.4796 15.2183L20.0771 13.8958Z" fill="url(#paint4_linear_54_1307)"/>
<defs>
<linearGradient id="paint0_linear_54_1307" x1="16.8343" y1="3.71838" x2="16.8343" y2="8.61547" gradientUnits="userSpaceOnUse">
<stop stop-color="#FF8A00"/>
<stop offset="1" stop-color="#FF1619"/>
</linearGradient>
<linearGradient id="paint1_linear_54_1307" x1="9.67314" y1="6.42078" x2="9.67314" y2="20.2423" gradientUnits="userSpaceOnUse">
<stop stop-color="#FF8A00"/>
<stop offset="1" stop-color="#FF1619"/>
</linearGradient>
<linearGradient id="paint2_linear_54_1307" x1="8.14653" y1="1.55688" x2="8.14653" y2="5.15591" gradientUnits="userSpaceOnUse">
<stop stop-color="#FF8A00"/>
<stop offset="1" stop-color="#FF1619"/>
</linearGradient>
<linearGradient id="paint3_linear_54_1307" x1="4.3125" y1="7.30688" x2="4.3125" y2="10.8936" gradientUnits="userSpaceOnUse">
<stop stop-color="#FF8A00"/>
<stop offset="1" stop-color="#FF1619"/>
</linearGradient>
<linearGradient id="paint4_linear_54_1307" x1="18.7019" y1="12.1064" x2="18.7019" y2="15.6851" gradientUnits="userSpaceOnUse">
<stop stop-color="#FF8A00"/>
<stop offset="1" stop-color="#FF1619"/>
</linearGradient>
</defs>
</svg>
