<svg width="23" height="23" viewBox="0 0 23 23" fill="none" xmlns="http://www.w3.org/2000/svg">
<path d="M20.3647 8.76874C18.1509 5.28999 14.9117 3.28708 11.5001 3.28708C9.79425 3.28708 8.13633 3.78541 6.62216 4.715C5.108 5.65416 3.74716 7.02458 2.6355 8.76874C1.67716 10.2733 1.67716 12.7171 2.6355 14.2217C4.84925 17.71 8.08841 19.7033 11.5001 19.7033C13.2059 19.7033 14.8638 19.205 16.378 18.2754C17.8922 17.3362 19.253 15.9658 20.3647 14.2217C21.323 12.7267 21.323 10.2733 20.3647 8.76874ZM11.5001 15.3717C9.35341 15.3717 7.62841 13.6371 7.62841 11.5C7.62841 9.36291 9.35341 7.62833 11.5001 7.62833C13.6467 7.62833 15.3717 9.36291 15.3717 11.5C15.3717 13.6371 13.6467 15.3717 11.5001 15.3717Z" fill="url(#paint0_linear_54_576)"/>
<path d="M11.4998 8.75917C9.99522 8.75917 8.76855 9.98584 8.76855 11.5C8.76855 13.0046 9.99522 14.2313 11.4998 14.2313C13.0044 14.2313 14.2406 13.0046 14.2406 11.5C14.2406 9.99542 13.0044 8.75917 11.4998 8.75917Z" fill="url(#paint1_linear_54_576)"/>
<defs>
<linearGradient id="paint0_linear_54_576" x1="11.5001" y1="3.28708" x2="11.5001" y2="19.7033" gradientUnits="userSpaceOnUse">
<stop stop-color="#FF8A00"/>
<stop offset="1" stop-color="#FF1619"/>
</linearGradient>
<linearGradient id="paint1_linear_54_576" x1="11.5046" y1="8.75917" x2="11.5046" y2="14.2313" gradientUnits="userSpaceOnUse">
<stop stop-color="#FF8A00"/>
<stop offset="1" stop-color="#FF1619"/>
</linearGradient>
</defs>
</svg>
