<?xml version="1.0" encoding="utf-8"?>
<!-- Generator: Adobe Illustrator 26.0.3, SVG Export Plug-In . SVG Version: 6.00 Build 0)  -->
<svg version="1.1" id="Layer_1" xmlns="http://www.w3.org/2000/svg" xmlns:xlink="http://www.w3.org/1999/xlink" x="0px" y="0px"
	 viewBox="0 0 40 40" style="enable-background:new 0 0 40 40;" xml:space="preserve">
<style type="text/css">
	.st0{fill:none;stroke:#FFFFFF;stroke-width:2.857;stroke-linecap:round;stroke-linejoin:round;}
</style>
<g transform="translate(1.667 1.667)">
	<path class="st0" d="M19.6,36.9L19.6,36.9c-0.7,0.3-1.4,0.3-2.1,0l0,0C7,32.8,0,22.6,0,11.2V2.9C0,1.3,1.3,0,2.9,0h31.4
		c1.6,0,2.9,1.3,2.9,2.9v8.3C37.2,22.6,30.2,32.8,19.6,36.9z"/>
	<path class="st0" d="M12.3,14.3h12.6c0.5,0,0.8,0.4,0.8,0.8v9.8c0,0.5-0.4,0.8-0.8,0.8H12.3c-0.5,0-0.8-0.4-0.8-0.8v-9.8
		C11.4,14.7,11.8,14.3,12.3,14.3z"/>
	<path class="st0" d="M22.9,14.3v-2.9c0-2.4-1.9-4.3-4.2-4.4s-4.3,1.9-4.4,4.2c0,0,0,0.1,0,0.1v2.9"/>
</g>
</svg>
