<svg width="27" height="34" viewBox="0 0 27 34" fill="none" xmlns="http://www.w3.org/2000/svg">
<path fill-rule="evenodd" clip-rule="evenodd" d="M27 8.5L19.5 0H1.4895C0.6675 0 0 0.7548 0 1.6864V32.3136C0.00314197 32.7601 0.161127 33.1872 0.439826 33.5027C0.718526 33.8183 1.09557 33.9969 1.4895 34H25.5105C25.9053 34 26.2839 33.8224 26.5632 33.5062C26.8425 33.19 26.9996 32.761 27 32.3136V8.5ZM12.0002 7V10H13.5002V7H12.0002ZM5 11.1828L7.2749 12.9572L8.19745 11.7744L5.92254 10L5 11.1828ZM12.3753 22.9046H10.4634C10.3261 22.3214 9.83167 21.8168 9.4446 21.4218C9.30864 21.283 9.18591 21.1578 9.09656 21.0474C8.50793 20.3189 8.13903 19.4405 8.03235 18.5135C7.92567 17.5864 8.08556 16.6483 8.49359 15.8074C8.90162 14.9664 9.5412 14.2566 10.3387 13.76C11.1361 13.2633 12.059 12.9999 13.001 13C13.943 13.0001 14.8658 13.2639 15.6631 13.7608C16.4604 14.2577 17.0997 14.9677 17.5075 15.8088C17.9152 16.6499 18.0748 17.588 17.9678 18.5151C17.8609 19.4421 17.4917 20.3203 16.9028 21.0486C16.8138 21.1585 16.6917 21.2831 16.5565 21.4211C16.1696 21.8161 15.6747 22.3212 15.5372 22.9046H13.6253V19.8092H12.3753V22.9046ZM15.5003 24.7618V24.1428H10.5003V24.7618C10.5003 25.0902 10.632 25.4052 10.8664 25.6374C11.1008 25.8696 11.4188 26 11.7503 26H14.2503C14.5818 26 14.8998 25.8696 15.1342 25.6374C15.3686 25.4052 15.5003 25.0902 15.5003 24.7618ZM21.1976 11.1828L18.9227 12.9572L18.0002 11.7744L20.2751 10L21.1976 11.1828Z" fill="#50438E"/>
</svg>
