<svg width="33" height="34" viewBox="0 0 33 34" fill="none" xmlns="http://www.w3.org/2000/svg">
<path fill-rule="evenodd" clip-rule="evenodd" d="M15 0C18.7733 0 22.2212 1.39316 24.8573 3.69318L4.55046 24H1.5C1.10218 24 0.720644 23.842 0.43934 23.5607C0.158035 23.2794 0 22.8978 0 22.5V15C0 6.7155 6.7155 0 15 0ZM8.25 18C8.54547 18 8.83806 17.9418 9.11104 17.8287C9.38402 17.7157 9.63206 17.5499 9.84099 17.341C10.0499 17.1321 10.2157 16.884 10.3287 16.611C10.4418 16.3381 10.5 16.0455 10.5 15.75C10.5 15.4545 10.4418 15.1619 10.3287 14.889C10.2157 14.616 10.0499 14.3679 9.84099 14.159C9.63206 13.9501 9.38402 13.7843 9.11104 13.6713C8.83806 13.5582 8.54547 13.5 8.25 13.5C7.65326 13.5 7.08097 13.7371 6.65901 14.159C6.23705 14.581 6 15.1533 6 15.75C6 16.3467 6.23705 16.919 6.65901 17.341C7.08097 17.7629 7.65326 18 8.25 18Z" fill="#50438E"/>
<path d="M22.5 30H8.44995L20.7065 17.7434C21.0256 17.9104 21.3832 18 21.75 18C22.0455 18 22.3381 17.9418 22.611 17.8287C22.884 17.7157 23.1321 17.5499 23.341 17.341C23.5499 17.1321 23.7157 16.884 23.8287 16.611C23.9418 16.3381 24 16.0455 24 15.75C24 15.4545 23.9418 15.1619 23.8287 14.889C23.803 14.8268 23.7745 14.7659 23.7434 14.7065L28.9569 9.49304C29.6301 11.1979 30 13.0558 30 15V22.5C30 22.8978 29.842 23.2794 29.5607 23.5607C29.2794 23.842 28.8978 24 28.5 24H24V28.5C24 28.8978 23.842 29.2794 23.5607 29.5607C23.2794 29.842 22.8978 30 22.5 30Z" fill="#50438E"/>
<path d="M30.2173 1.16091L32.3386 3.28223L2.58063 33.0402L0.459311 30.9189L30.2173 1.16091Z" fill="#50438E"/>
</svg>
