<?xml version="1.0" encoding="utf-8"?>
<!-- Generator: Adobe Illustrator 26.0.3, SVG Export Plug-In . SVG Version: 6.00 Build 0)  -->
<svg version="1.1" id="Layer_1" xmlns="http://www.w3.org/2000/svg" xmlns:xlink="http://www.w3.org/1999/xlink" x="0px" y="0px"
	 viewBox="0 0 40 40" style="enable-background:new 0 0 40 40;" xml:space="preserve">
<style type="text/css">
	.st0{fill:none;stroke:#FFFFFF;stroke-width:2.857;stroke-linecap:round;stroke-linejoin:round;}
</style>
<g transform="translate(3.333 1.667)">
	<path class="st0" d="M12,5l1.2-3.2C13.6,0.7,14.7,0,15.9,0h2.3c1.2,0,2.2,0.7,2.7,1.8L22.1,5l4.2,2.4l3.4-0.5
		c1.1-0.2,2.3,0.4,2.9,1.4l1.1,2c0.6,1,0.5,2.3-0.2,3.2l-2.1,2.7V21l2.1,2.7c0.7,0.9,0.8,2.2,0.2,3.2l-1.1,2c-0.6,1-1.7,1.6-2.9,1.4
		l-3.4-0.5l-4.2,2.4l-1.2,3.2c-0.4,1.1-1.5,1.8-2.7,1.8h-2.4c-1.2,0-2.2-0.7-2.7-1.8L12,32.1l-4.2-2.4l-3.4,0.5
		c-1.1,0.2-2.3-0.4-2.9-1.4l-1.1-2c-0.6-1-0.5-2.3,0.2-3.2L2.8,21v-4.8l-2.1-2.7c-0.7-0.9-0.8-2.2-0.2-3.2l1.1-2
		c0.6-1,1.7-1.6,2.9-1.4l3.4,0.5L12,5z"/>
	<circle class="st0" cx="17.1" cy="18.6" r="8.6"/>
	<path class="st0" d="M17.1,10v8.6h8.6 M17.1,18.6L11,24.6"/>
</g>
</svg>
