<?xml version="1.0" encoding="UTF-8"?>
<svg id="Layer_1" xmlns="http://www.w3.org/2000/svg" xmlns:xlink="http://www.w3.org/1999/xlink" version="1.1" viewBox="0 0 24 24">
  <!-- Generator: Adobe Illustrator 29.3.1, SVG Export Plug-In . SVG Version: 2.1.0 Build 151)  -->
  <defs>
    <style>
      .st0 {
        fill: url(#linear-gradient);
      }
    </style>
    <linearGradient id="linear-gradient" x1="12.0642" y1="-1.0677" x2="12.0642" y2="23.7067" gradientUnits="userSpaceOnUse">
      <stop offset="0" stop-color="#fa8026"/>
      <stop offset="1" stop-color="#f91823"/>
    </linearGradient>
  </defs>
  <path class="st0" d="M18.6545,14.1022c-1.5984,0-3.001.8318-3.8137,2.0814l-1.3178-.7503c.1431-.4117.2369-.8466.2369-1.3065,0-.9326-.3331-1.7808-.8689-2.4628l2.8433-2.7075c.7556.5576,1.6799.8983,2.689.8983,2.5104,0,4.5533-2.0424,4.5533-4.5531S20.9337.7489,18.4233.7489s-4.5531,2.0424-4.5531,4.5528c0,1.1774.4608,2.2416,1.1968,3.0507l-2.8065,2.6725c-.6898-.5598-1.5563-.9094-2.5118-.9094-.5067,0-.9872.1044-1.434.2766l-.8847-1.5188c1.1824-.7535,1.9735-2.0684,1.9735-3.5715,0-2.3388-1.9028-4.2413-4.2416-4.2413S.9207,2.9629.9207,5.3017s1.9025,4.2416,4.2413,4.2416c.5148,0,1.0024-.106,1.4594-.2747l.8913,1.5301c-1.0699.7212-1.7752,1.9436-1.7752,3.3281,0,.9986.3799,1.9017.9858,2.6046l-.4394.471c-.5623-.4429-1.2476-.6963-1.9699-.6963-1.7631,0-3.1976,1.4348-3.1976,3.1979s1.4345,3.1978,3.1976,3.1978,3.1979-1.4347,3.1979-3.1978c0-.6699-.2143-1.3207-.599-1.8596l.4654-.4989c.666.492,1.4809.7927,2.3706.7927,1.431,0,2.6803-.7592,3.3904-1.8901l1.2902.7346c-.2063.5191-.3279,1.0811-.3279,1.6727,0,2.5104,2.0424,4.5533,4.5531,4.5533s4.5533-2.0429,4.5533-4.5533-2.0429-4.5531-4.5533-4.5531ZM1.8183,5.3017c0-1.8437,1.5-3.3436,3.3437-3.3436s3.3439,1.4999,3.3439,3.3436-1.4999,3.3439-3.3439,3.3439-3.3437-1.5-3.3437-3.3439ZM18.4233,1.6465c2.0158,0,3.6552,1.6396,3.6552,3.6552s-1.6393,3.6554-3.6552,3.6554-3.6554-1.6398-3.6554-3.6554,1.6398-3.6552,3.6554-3.6552ZM4.3139,22.0036c-1.2682,0-2.2999-1.0317-2.2999-2.2997s1.0317-2.2997,2.2999-2.2997c.5821,0,1.1373.2173,1.5637.6127.4749.4409.7365,1.0399.7365,1.687,0,1.2679-1.0319,2.2997-2.3002,2.2997ZM9.7488,17.24c-1.7168,0-3.1137-1.3964-3.1137-3.1132s1.3969-3.1137,3.1137-3.1137,3.1135,1.3969,3.1135,3.1137-1.3967,3.1132-3.1135,3.1132ZM18.6545,22.3105c-2.0158,0-3.6555-1.6393-3.6555-3.6552s1.6396-3.6552,3.6555-3.6552,3.6551,1.6393,3.6551,3.6552-1.6393,3.6552-3.6551,3.6552Z"/>
</svg>