<svg width="23" height="23" viewBox="0 0 23 23" fill="none" xmlns="http://www.w3.org/2000/svg">
<path d="M15.3334 1.88794H7.66675C3.83341 1.88794 1.91675 3.80461 1.91675 7.63794V12.4296C1.91675 17.2213 3.83341 18.1796 7.66675 18.1796H8.14591C8.41425 18.1796 8.75925 18.3521 8.91258 18.5629L10.3501 20.4796C10.9826 21.3229 12.0176 21.3229 12.6501 20.4796L14.0876 18.5629C14.2697 18.3234 14.5572 18.1796 14.8542 18.1796H15.3334C19.1667 18.1796 21.0834 16.2629 21.0834 12.4296V7.63794C21.0834 3.80461 19.1667 1.88794 15.3334 1.88794ZM8.17466 11.6629C8.45258 11.9409 8.45258 12.4009 8.17466 12.6788C8.03091 12.8225 7.84883 12.8896 7.66675 12.8896C7.48466 12.8896 7.30258 12.8225 7.15883 12.6788L5.24216 10.7621C4.96425 10.4842 4.96425 10.0242 5.24216 9.74627L7.15883 7.82961C7.43675 7.55169 7.89675 7.55169 8.17466 7.82961C8.45258 8.10752 8.45258 8.56752 8.17466 8.84544L6.76591 10.2542L8.17466 11.6629ZM13.1197 8.29919L11.203 12.7746C11.088 13.0429 10.8197 13.2059 10.5417 13.2059C10.4459 13.2059 10.3501 13.1867 10.2542 13.1484C9.89008 12.995 9.71758 12.5734 9.8805 12.1996L11.7972 7.72419C11.9505 7.36002 12.3722 7.18752 12.7459 7.35044C13.1101 7.51336 13.273 7.93502 13.1197 8.29919ZM17.758 10.7621L15.8413 12.6788C15.6976 12.8225 15.5155 12.8896 15.3334 12.8896C15.1513 12.8896 14.9692 12.8225 14.8255 12.6788C14.5476 12.4009 14.5476 11.9409 14.8255 11.6629L16.2342 10.2542L14.8255 8.84544C14.5476 8.56752 14.5476 8.10752 14.8255 7.82961C15.1034 7.55169 15.5634 7.55169 15.8413 7.82961L17.758 9.74627C18.0359 10.0242 18.0359 10.4842 17.758 10.7621Z" fill="url(#paint0_linear_54_1290)"/>
<defs>
<linearGradient id="paint0_linear_54_1290" x1="11.5001" y1="1.88794" x2="11.5001" y2="21.1121" gradientUnits="userSpaceOnUse">
<stop stop-color="#FF8A00"/>
<stop offset="1" stop-color="#FF1619"/>
</linearGradient>
</defs>
</svg>
