<svg width="23" height="23" viewBox="0 0 23 23" fill="none" xmlns="http://www.w3.org/2000/svg">
<path d="M17.7675 3.94835L12.4967 1.97418C11.9504 1.77293 11.0592 1.77293 10.5129 1.97418L5.2421 3.94835C4.22627 4.33168 3.4021 5.52001 3.4021 6.60293V14.3654C3.4021 15.1417 3.91002 16.1671 4.53293 16.6271L9.80377 20.5658C10.7333 21.2654 12.2571 21.2654 13.1867 20.5658L18.4575 16.6271C19.0804 16.1575 19.5884 15.1417 19.5884 14.3654V6.60293C19.5979 5.52001 18.7738 4.33168 17.7675 3.94835ZM14.835 9.31501L10.7142 13.4358C10.5704 13.5796 10.3883 13.6467 10.2063 13.6467C10.0242 13.6467 9.8421 13.5796 9.69835 13.4358L8.16502 11.8833C7.8871 11.6054 7.8871 11.1454 8.16502 10.8675C8.44293 10.5896 8.90293 10.5896 9.18085 10.8675L10.2158 11.9025L13.8288 8.2896C14.1067 8.01168 14.5667 8.01168 14.8446 8.2896C15.1225 8.56751 15.1225 9.0371 14.835 9.31501Z" fill="url(#paint0_linear_54_1282)"/>
<defs>
<linearGradient id="paint0_linear_54_1282" x1="11.4953" y1="1.82324" x2="11.4953" y2="21.0905" gradientUnits="userSpaceOnUse">
<stop stop-color="#FF8A00"/>
<stop offset="1" stop-color="#FF1619"/>
</linearGradient>
</defs>
</svg>
