<svg width="24" height="24" viewBox="0 0 24 24" xmlns="http://www.w3.org/2000/svg">
    <path d="m12.98 2.037 2.726 5.503c.126.284.393.48.702.514l6.018.891a.926.926 0 0 1 .514 1.595l-4.337 4.302a.909.909 0 0 0-.275.823l1.046 6.052a.943.943 0 0 1-1.371.994l-5.417-2.863a1.011 1.011 0 0 0-.892 0l-5.417 2.863a.943.943 0 0 1-1.371-.994l1.045-6.12a.909.909 0 0 0-.274-.823L1.288 10.54a.926.926 0 0 1 .566-1.595l6.017-.891a.874.874 0 0 0 .703-.514L11.3 2.037a.926.926 0 0 1 1.68 0z" stroke="#504190" stroke-width="1.714" fill="none" fill-rule="evenodd" stroke-linecap="round" stroke-linejoin="round"/>
</svg>
