<svg width="23" height="23" viewBox="0 0 23 23" fill="none" xmlns="http://www.w3.org/2000/svg">
<path d="M20.2112 6.68918C19.3967 5.78834 18.0358 5.33793 16.0617 5.33793H15.8317V5.29959C15.8317 3.68959 15.8317 1.69626 12.2283 1.69626H10.7717C7.16833 1.69626 7.16833 3.69918 7.16833 5.29959V5.34751H6.93833C4.95458 5.34751 3.60333 5.79792 2.78875 6.69876C1.84 7.75292 1.86875 9.17126 1.96458 10.1392L1.97416 10.2063L2.04839 10.9857C2.06206 11.1292 2.13936 11.2588 2.26001 11.3378C2.48982 11.4882 2.87444 11.7361 3.105 11.8642C3.23916 11.9504 3.38291 12.0271 3.52666 12.1038C5.16541 13.0046 6.96708 13.6083 8.79749 13.9054C8.88374 14.8063 9.27666 15.8604 11.3754 15.8604C13.4742 15.8604 13.8862 14.8158 13.9533 13.8863C15.9083 13.57 17.7962 12.8896 19.5021 11.8929C19.5596 11.8642 19.5979 11.8354 19.6458 11.8067C20.026 11.5918 20.4205 11.327 20.78 11.0677C20.8883 10.9895 20.9575 10.8687 20.9723 10.736L20.9875 10.5992L21.0354 10.1488C21.045 10.0913 21.045 10.0433 21.0546 9.97626C21.1312 9.00834 21.1121 7.68584 20.2112 6.68918ZM12.5446 13.2538C12.5446 14.2696 12.5446 14.4229 11.3658 14.4229C10.1871 14.4229 10.1871 14.2408 10.1871 13.2633V12.0558H12.5446V13.2538ZM8.53874 5.33793V5.29959C8.53874 3.67043 8.53874 3.06668 10.7717 3.06668H12.2283C14.4612 3.06668 14.4612 3.68001 14.4612 5.29959V5.34751H8.53874V5.33793Z" fill="url(#paint0_linear_146_226)"/>
<path d="M20.0039 13.1619C20.3428 13.0007 20.7331 13.2693 20.6991 13.643L20.3552 17.4321C20.1539 19.3488 19.3681 21.3038 15.1514 21.3038H7.84893C3.63226 21.3038 2.84643 19.3488 2.64518 17.4417L2.31866 13.85C2.28508 13.4806 2.66645 13.2123 3.0044 13.3652C4.09634 13.8592 6.11185 14.7357 7.35689 15.0618C7.51435 15.1031 7.64171 15.2157 7.71065 15.3632C8.29233 16.6072 9.55391 17.2692 11.3756 17.2692C13.1793 17.2692 14.4568 16.5817 15.0404 15.3347C15.1094 15.1871 15.2369 15.0744 15.3945 15.033C16.7165 14.6851 18.8619 13.7054 20.0039 13.1619Z" fill="url(#paint1_linear_146_226)"/>
<defs>
<linearGradient id="paint0_linear_146_226" x1="11.5012" y1="1.69626" x2="11.5012" y2="15.8604" gradientUnits="userSpaceOnUse">
<stop stop-color="#FF8A00"/>
<stop offset="1" stop-color="#FF1619"/>
</linearGradient>
<linearGradient id="paint1_linear_146_226" x1="11.5098" y1="12.7871" x2="11.5098" y2="21.3038" gradientUnits="userSpaceOnUse">
<stop stop-color="#FF8A00"/>
<stop offset="1" stop-color="#FF1619"/>
</linearGradient>
</defs>
</svg>
