<svg width="30" height="33" viewBox="0 0 30 33" fill="none" xmlns="http://www.w3.org/2000/svg">
<path fill-rule="evenodd" clip-rule="evenodd" d="M26.1666 11.4923C25.3323 5.0094 19.8179 0 13.1375 0C5.8823 0 0 5.9103 0 13.2C0 16.3218 1.07891 19.1912 2.88368 21.4517C4.21056 23.1149 4.92655 24.9579 4.92655 26.9049V33H19.7062L19.7079 28.05H22.9906C24.8052 28.05 26.2749 26.5732 26.2749 24.75V19.9155L29.492 18.5328C30.0553 18.2886 30.1045 17.716 29.8615 17.3316L26.1666 11.4923ZM11.6221 18.9198H9.8333L14.0921 7.47979H15.8809L11.6221 18.9198ZM10.0872 15.7927L7.4353 13.1998L10.0865 10.6069L8.89278 9.43887L5.04639 13.1998L8.89272 16.9606L10.0872 15.7927ZM16.8215 16.9606L20.6678 13.1998L16.8215 9.43892L15.627 10.6068L18.2789 13.1998L15.627 15.7927L16.8215 16.9606Z" fill="#50438E"/>
</svg>
