<svg width="28" height="32" viewBox="0 0 28 32" fill="none" xmlns="http://www.w3.org/2000/svg">
<path d="M5.57301 7.952C7.96362 6.0366 10.9367 4.99512 14 5C17.1875 5 20.117 6.104 22.427 7.952L24.6065 5.7725L26.7275 7.8935L24.548 10.073C26.1346 12.0592 27.1281 14.453 27.4142 16.979C27.7004 19.5049 27.2675 22.0603 26.1654 24.3511C25.0634 26.6419 23.3369 28.575 21.1847 29.9279C19.0325 31.2808 16.5421 31.9985 14 31.9985C11.4579 31.9985 8.96747 31.2808 6.81529 29.9279C4.66311 28.575 2.93665 26.6419 1.83459 24.3511C0.732532 22.0603 0.299663 19.5049 0.5858 16.979C0.871938 14.453 1.86545 12.0592 3.45201 10.073L1.27251 7.895L3.39351 5.774L5.57301 7.9535V7.952ZM15.5 17V10.2425L8.00001 20H12.5V26.75L20 17H15.5ZM8.00001 0.5H20V3.5H8.00001V0.5Z" fill="#50438E"/>
</svg>
