<?xml version="1.0" encoding="utf-8"?>
<!-- Generator: Adobe Illustrator 27.9.0, SVG Export Plug-In . SVG Version: 6.00 Build 0)  -->
<svg version="1.1" id="Layer_1" xmlns="http://www.w3.org/2000/svg" xmlns:xlink="http://www.w3.org/1999/xlink" x="0px" y="0px"
	 viewBox="0 0 216 108" style="enable-background:new 0 0 216 108;" xml:space="preserve">
<style type="text/css">
	.st0{fill:#FFFFFF;}
</style>
<g>
	<path class="st0" d="M42,71.6c-0.7-0.4-0.6-0.5-1.1-1c-1-1-1.8-2.1-2.3-3.5c-0.1-0.3-0.3-0.4-0.5-0.1c-0.2,0.3-0.7,0.9-1.6,1.6
		c-0.8,0.8-1.4,1.3-1.8,1.4c-1.8,1.1-3.5,1.6-5,1.6s-2.5-0.2-3.2-0.7c-1.1-0.8-1.6-2-1.6-3.5c0-1.8,0.6-3.6,1.8-5.2
		c0.8-1.2,2.1-2.2,3.9-2.9c1.9-0.9,4.5-1.6,7.6-2.2c0.2,0,0.3-0.2,0.3-0.6c0.1-2.9,0.1-4.8,0-5.9c-0.1-1-0.5-1.8-1.3-2.2
		c-0.8-0.5-1.8-0.7-3.2-0.7c-2,0-3.3,0.2-4.1,0.7c-0.5,0.3-0.6,0.7-0.6,1v0.8c0,0.8-0.2,1.6-0.6,2.2c-0.7,1.1-1.5,1.6-2.4,1.6
		c-0.7,0-1-0.4-1-1.3c0-0.7,0.4-1.7,1.3-2.8c0.9-1.1,1.8-2,2.8-2.6c1.8-1.1,4.3-1.7,7.5-1.7c2.1,0,3.6,0.4,4.6,1.3c0.7,0.6,1,2,1,4
		c0,1.5-0.1,3.7-0.3,6.7s-0.3,4.7-0.3,5.1c0,1.9,0.5,3.4,1.4,4.5c0.4,0.4,0.6,0.7,1.5,1.1C45.9,69,43.3,72.4,42,71.6 M38.4,58.9
		c0-0.4-0.2-0.5-0.5-0.5c-1.5,0-3.1,0.4-4.9,1.2c-3.1,1.4-4.6,3.2-4.6,5.6c0,1.4,0.4,2.4,1,2.9c0.6,0.5,1.5,0.7,2.8,0.7
		c1.7,0,3.4-0.7,5-2.2c0.5-0.4,0.7-0.9,0.8-1.4C38.3,62.9,38.4,60.8,38.4,58.9"/>
	<path class="st0" d="M92.3,70.2h-2.5c-0.5,0-1.2-0.6-2.1-1.7c-0.7-0.8-1.3-1.6-1.7-2.2c-2.2-3.1-4.3-5.9-6.2-8.6
		c-0.3-0.3-0.3-0.6-0.1-0.8c1.1-1,2.2-1.9,3.1-2.8c1.8-1.6,3.4-3.6,5-6c0.5-0.7,1-1,1.4-1h2.2c0.2,0,0.3-0.1,0.3-0.3v-1
		c0-0.2-0.1-0.3-0.3-0.3H80.9c-0.2,0-0.4,0.1-0.4,0.3v0.9c0,0.2,0.1,0.3,0.3,0.3h2.8c0.7,0,1.1,0.3,1.1,0.9c0,0.5-0.4,1.5-1.2,2.7
		c-1.4,2.2-2.9,3.8-4.5,5.1c-0.2,0.2-0.4,0.2-0.6-0.1c-1.8-2.5-3.4-4.8-4.8-6.7c-0.3-0.4-0.5-0.8-0.6-1h-0.5c0,0-0.2,0-0.7,0.7
		c-0.6,0.8-1.1,1.6-1.7,2.3c0.5,0.6,1,1.3,1.7,2.1c1.1,1.3,2.3,3,3.9,5.1c0.2,0.3,0.2,0.5-0.1,0.7c-1.2,0.9-2.5,2-3.9,3.3
		c-1,0.9-1.8,1.8-2.5,2.5c0.3,0.4,0.5,0.8,0.8,1.1l0,0.1c0.1,0.1,0.2,0.3,0.3,0.4c0.2-0.4,0.5-0.8,0.9-1.3c0.4-0.7,1.2-1.5,2.4-2.7
		c1.2-1.2,2.1-2,2.8-2.5c0.2-0.1,0.4,0,0.6,0.3l5.9,8.4c0.3,0.4,0.4,0.7,0.4,1.1c0,0.3-0.2,0.5-0.5,0.5h-3.5c-0.2,0-0.2,0.1-0.2,0.3
		v0.9c0,0.2,0.1,0.3,0.3,0.3l13,0c0.1,0,0.2,0,0.2-0.2v-1.1C92.5,70.3,92.4,70.2,92.3,70.2"/>
	<path class="st0" d="M75.8,71.4c0,0.2-0.1,0.3-0.2,0.3H62.6c-0.2,0-0.3-0.1-0.3-0.3v-0.9c0-0.2,0.1-0.3,0.2-0.3H66
		c0.4,0,0.5-0.1,0.5-0.4c0-0.3-0.1-0.7-0.4-1.1l-5.9-8.4C60,60,59.8,59.9,59.7,60c-0.7,0.5-1.6,1.3-2.8,2.5c-1.2,1.2-2,2.1-2.4,2.7
		c-1.3,1.9-2,3.1-2,3.7c0,0.9,0.3,1.3,1,1.3h3.1c0.2,0,0.3,0.1,0.3,0.3v0.9c0,0.2-0.1,0.3-0.4,0.3H45.8c-0.2,0-0.3,0-0.3-0.1
		s-0.1-0.1-0.1-0.2v-0.9c0-0.2,0.1-0.3,0.3-0.3h2.6c0.3,0,0.6-0.3,0.9-0.8c0.2-0.5,0.5-1.1,0.9-1.6c0.9-1.5,2.5-3.3,4.9-5.5
		c1.3-1.3,2.6-2.3,3.9-3.3c0.2-0.2,0.3-0.4,0.1-0.7c-1.5-2.1-2.8-3.8-3.9-5.2c-2-2.5-3.2-4.1-3.9-4.8c-0.7-0.8-1.5-1.2-2.4-1.2H47
		c-0.2,0-0.2-0.1-0.2-0.3V46c0-0.2,0.1-0.3,0.2-0.3h12.8c0.2,0,0.2,0.1,0.2,0.3v1c0,0.2-0.1,0.2-0.3,0.2h-3c-0.4,0-0.7,0.2-0.7,0.5
		c0,0.4,0.2,0.8,0.7,1.5c1.3,2,3,4.2,4.8,6.7c0.2,0.3,0.4,0.3,0.6,0.1c1.6-1.2,3.1-2.9,4.5-5.1c0.8-1.2,1.2-2.1,1.2-2.7
		c0-0.7-0.3-1-1.1-1h-2.8c-0.2,0-0.3-0.1-0.3-0.2v-1c0-0.2,0.1-0.3,0.4-0.3h10.5c0.2,0,0.3,0.1,0.3,0.2v1c0,0.2-0.1,0.3-0.3,0.3
		h-2.2c-0.4,0-0.9,0.3-1.4,1.1c-1.6,2.3-3.3,4.3-5,6c-0.9,0.9-2,1.8-3.1,2.8c-0.2,0.2-0.2,0.5,0.1,0.8c1.9,2.7,4,5.5,6.2,8.6
		c0.4,0.7,1,1.4,1.7,2.2c0.9,1.1,1.7,1.6,2.1,1.6h2.5c0.1,0,0.2,0.1,0.2,0.2L75.8,71.4L75.8,71.4z"/>
	<path class="st0" d="M191,67.5c0,0,0,0.1-0.1,0.2c-0.6,0.6-1.1,1-1.5,1.3c-0.7,0.5-1.7,1-2.9,1.5c-1.9,0.8-4,1.3-6.3,1.3
		c-3.4,0-6-1-8-2.9c-2.4-2.4-3.6-5.3-3.6-8.7c0-2.4,0.1-4.2,0.4-5.4c0.7-2.8,1.8-5,3.5-6.6c1.9-1.9,4.3-2.8,7.2-2.8
		c2.8,0.1,5.1,1.7,6.7,2.7c1.8,1.3,3,2.6,3.6,3.9c0.1,0.3,0.2,0.6,0.2,0.9c0,0.2-0.2,0.4-0.5,0.5c-0.7,0.3-2.9,0.7-6.4,1.4
		c-4,0.7-8.6,1.1-9.4,1.1s-1.2,0-1.4,0c-0.2,0-0.3,0.4-0.3,1.3c0,3.9,1.4,7,4.3,9.5c1.5,1.3,4.1,2,7.6,2c1.8,0,3.3-0.2,4.5-0.6
		c0.6-0.2,1.1-0.4,1.5-0.7c0.1-0.1,0.3-0.3,0.5-0.3C190.9,67,191,67.4,191,67.5 M185.7,52.4c0-0.2-0.1-0.4-0.3-0.7
		c-0.8-1.4-1.9-2.6-3.1-3.5c-3.4-2.7-6.6-0.7-7.7,0.8c-0.4,0.5-0.8,1.4-1.3,2.5c-0.5,1.2-0.7,2.2-0.7,2.8c0,0.3,0.1,0.5,0.3,0.5
		c-0.2,0,5.3-0.1,12.4-1.7C185.5,52.9,185.7,52.7,185.7,52.4"/>
	<path class="st0" d="M108,70.2h-4c-0.6,0-0.7-0.2-0.7-0.7s0-15,0-15s0-8.4,0-8.5c0-0.6,0-0.9-0.4-0.9c0.1,0-0.5,0.1-1.7,0.2
		c-1.6,0.2-3.3,0.2-5.1,0.2h-1.7c-0.2,0-0.3,0.1-0.3,0.4v0.9c0,0.2,0.2,0.3,0.5,0.3h2.8c0.8,0,1.3,0.9,1.5,2.7
		c0.1,0.6,0,19.6,0,19.7c0,0.4-0.2,0.6-0.5,0.6h-4c-0.2,0-0.3,0-0.3,0.3v0.9c0,0.2,0.2,0.3,0.4,0.3l13.5,0c0.2,0,0.3-0.1,0.3-0.3v-1
		C108.3,70.3,108.2,70.2,108,70.2"/>
	<path class="st0" d="M171.3,70.2h-3.8c-0.5,0-0.5-0.6-0.5-0.6V56.3c0-4.5-0.6-7.5-2.1-8.9c-1.3-1.3-3-2-4.9-2s-3.3,0.3-4.3,0.8
		c-1.1,0.7-1.8,1.2-2.1,1.4c-0.5,0.3-1.3,1-2.2,1.9c-0.3,0.2-0.5,0.2-0.6-0.2c-0.3-1.2-0.8-2.1-1.6-2.8c-1-0.9-2.3-1.3-3.8-1.3
		c-1.3,0-2.6,0.2-4,0.7c-0.9,0.4-1.6,0.8-2,1.1c-1.8,1.1-2.9,1.8-3.2,2c0,0-0.2,0.2-0.2,0.2c0-2,0-3.1,0-3.1c0-0.6,0-0.8-0.4-0.8
		c0.1,0-0.4,0-1.6,0.1c-1.6,0.2-3.3,0.2-5.1,0.2h-1.7c-0.2,0-0.3,0.1-0.3,0.4v0.9c0,0.2,0.2,0.3,0.5,0.3h2.8c0.8,0,1.3,0.9,1.5,2.7
		c0.1,0.6,0,2.4,0,5.3c0,0.5,0,14.3,0,14.4c0,0.4-0.2,0.6-0.5,0.6h-4.1c-0.2,0-0.3,0-0.3,0.3v0.9c0,0.2,0.1,0.3,0.3,0.3h13.6
		c0.2,0,0.3-0.1,0.3-0.3v-1c0-0.2-0.1-0.2-0.3-0.2h-4c-0.6,0-0.7-0.2-0.7-0.7s0-17.7,0-18.8c0,0,0.2-0.2,0.2-0.2
		c1.5-1.5,3.7-2.3,6.6-2.3c3.1,0,4.6,1.6,4.6,4.7c0,0.2,0,16.6,0,16.8c0,0.4-0.2,0.5-0.4,0.5h-2.7c-0.2,0-0.2,0.1-0.2,0.2v1
		c0,0.2,0.1,0.3,0.3,0.3h11.2c0.1,0,0.2,0,0.2-0.2v-1c0-0.2-0.1-0.3-0.2-0.3H152c-0.5,0-0.5-0.6-0.5-0.6l0-18c0-0.3,0.1-0.5,0.3-0.7
		c1.5-1.6,3.5-2.3,6-2.3c1.9,0,3.4,0.6,4.3,1.8c0.8,1,1.1,3.3,1.1,6.9c0,0.8,0,12.4,0,12.5c0,0.4-0.2,0.5-0.4,0.5h-2.7
		c-0.2,0-0.3,0.1-0.3,0.3v1c0,0.2,0.1,0.2,0.3,0.2h11.2c0.1,0,0.2,0,0.2-0.2v-1.1C171.5,70.2,171.5,70.2,171.3,70.2"/>
	<path class="st0" d="M102.6,40.6c-1.1,1.4-2.8,1.9-3.8,1.2c-1-0.8-1-2.5,0.1-3.9c1.1-1.4,2.8-1.9,3.8-1.2
		C103.7,37.4,103.7,39.2,102.6,40.6"/>
	<path class="st0" d="M109.8,59.6v1h-0.4v1.2l-0.2,0.2l0.8,0.8v0.5l1.5,1.5v3.8l0.4,0.4v1.2l0.7,0.7c0.2,0.1,0.5,0.2,0.7,0.3l0,0
		l-0.6-0.6v-1.2l1-1v-0.9l0.6-0.6V66l0.7-0.7l0.4-0.4v-1.6l0.7-0.7l0.3-0.3l-0.6-0.7h-1.3l-0.7-0.7v-0.8l-0.4-0.4H113l-0.7-0.7H111
		l-0.3-0.3L109.8,59.6L109.8,59.6z M125.4,47.8l-2.3,2.3v0.7h0.9v0.6h0.5V51l0.5-0.5h-0.2V50l0.7-0.7h0.3v0.3l-0.3,0.3v0.5h1v0.2
		h-0.6v0.3h-0.3v1h-1.7v-0.5h-0.3v0.5H123l-0.9,1h-0.5v0.3h0.4v0.7h-1.1v1.3h0.3v0.4h0.3L123,54h0.6l1,1h0.3v-0.4l-0.7-0.7v-0.2h0.3
		l0.9,0.9v0.3l0.3,0.3v0.4h0.3v-0.8h0.5v-1l0.6-0.6h0.4v0.4l-0.2,0.2h0.3l0.2-0.2v-0.4h0.6l-0.3,0.3v0.4h0.6v0.5h-1.4l-0.6,0.6v0.4
		h1.3v1h-1.9l-0.2-0.2h-0.6v0.4h-0.5l-0.2-0.2l-0.7-0.1v-0.7h-1.8l-0.2,0.2h-0.9l-0.7,0.7v0.5l-1.1,1.1v1.7L119,60v0.6l0.4,0.4v0.4
		l0.9,0.9h0.4l0.3-0.3h0.3l0.1,0.1h0.3l0.3-0.3h0.6l0.4,0.4h0.7v0.9l0.7,0.7v1.4l0.3,0.3V66l-0.4,0.4v0.8h0.2v0.6l0.2,0.2v1.2h0.4
		v0.5c1.6-1.1,3-2.5,4-4.2H129v-1.3l1.2-1.2c0.2-0.6,0.4-1.3,0.5-2h-1v-0.2l-0.7-0.7v-0.6h-0.5v-1.1h-0.4v-0.6l-0.6-0.6h0.5l0.6,0.6
		v0.6h0.4v0.5l0.3,0.3v0.7h1.4c0.1-0.5,0.1-1,0.1-1.5c0-0.3,0-0.7,0-1l0-0.3c-0.3-2.9-1.4-5.5-3.2-7.5l-0.6-0.6
		c-0.5-0.5-1-0.9-1.5-1.3L125.4,47.8L125.4,47.8z M111.4,47.8h-0.8v-0.2h-0.9c-2.2,1.6-3.9,3.9-4.8,6.6v2.1h0.2v-1.5h0.4v1.7
		l1.2,1.2h0.9l1.7,1.7l0.2-0.2l-0.6-0.6v-0.4l-0.6-0.6v-0.7h-0.3l-0.3,0.3h-0.5l-0.2-0.2v-1l0.8-0.8h1.7v0.9h0.3V55l2-2l0.2-0.2h0.4
		l-0.1,0.1h0.3l0.5-0.5v-0.4h-0.5l0.3-0.3h0.6l0.7,0.7l0.3-0.3l-0.4-0.4v-0.9l-0.8-0.8v-0.4h-0.8v0.5l-0.9,0.9v0.4h-0.3v-0.6
		l-0.7-0.7v-0.6l0.9-0.9h0.6l0.6-0.6h-0.5l-0.8-0.8l-0.1-0.1L111.4,47.8L111.4,47.8z M115.4,45.2l-0.6,0.6v0.6h0.7l0.8,0.8v1.3
		l-0.4,0.4v1.2l0.3,0.3l1.1-1h0.6l0.5-0.5h0.6l-0.1-0.1v-0.4h0.6L119,48h0.7v-0.7h-0.3v-0.3h0.3v-0.5l0.6-0.6l-1.1,0l-0.4-0.4
		l0.3-0.3c-0.5-0.1-1-0.1-1.6-0.1C116.8,45.1,116.1,45.1,115.4,45.2 M121.2,51.4l0.2,0.2l0,0l0,0l-0.2,0.3l-0.2,0.1l-0.2-0.1
		l0.2-0.1l0-0.2h0.1L121.2,51.4 M121.9,51l0.1,0.2l-0.1,0.2l0,0.2l0.2,0.6l-0.1,0.3h-0.7l0.1-0.1l-0.1-0.2l0.3-0.3l0-0.2l-0.2-0.3
		C121.5,51.3,121.8,51,121.9,51"/>
</g>
</svg>
