<svg width="28" height="32" viewBox="0 0 28 32" fill="none" xmlns="http://www.w3.org/2000/svg">
<path fill-rule="evenodd" clip-rule="evenodd" d="M28 8V30.3888C28.0014 30.5989 27.9626 30.8073 27.8857 31.002C27.8089 31.1966 27.6955 31.3738 27.5521 31.5235C27.4086 31.6731 27.2379 31.7922 27.0498 31.8739C26.8616 31.9557 26.6596 31.9985 26.4553 32H1.54466C0.692221 32 0 31.2896 0 30.4128V1.5872C0 0.728 0.695332 0 1.55244 0H20.2222L28 8ZM14.9002 19.5257V12.3681C14.9002 12.1308 14.995 11.9033 15.1638 11.7355C15.3326 11.5677 15.5615 11.4734 15.8002 11.4734H18.5001V14.1575L23 10.5788L18.5001 7V9.68407H15.8002C15.0841 9.68407 14.3974 9.96685 13.891 10.4702C13.3847 10.9736 13.1002 11.6563 13.1002 12.3681V19.5257C13.1002 19.7629 13.0054 19.9905 12.8366 20.1583C12.6679 20.3261 12.439 20.4203 12.2003 20.4203H10.2473C10.035 19.8231 9.61715 19.3198 9.06761 18.9993C8.51808 18.6787 7.87225 18.5616 7.24427 18.6687C6.6163 18.7758 6.04662 19.1001 5.63594 19.5844C5.22525 20.0686 5 20.6816 5 21.315C5 21.9484 5.22525 22.5614 5.63594 23.0457C6.04662 23.53 6.6163 23.8543 7.24427 23.9614C7.87225 24.0684 8.51808 23.9513 9.06761 23.6308C9.61715 23.3103 10.035 22.8069 10.2473 22.2097H12.2003C12.9163 22.2097 13.6031 21.9269 14.1094 21.4236C14.6157 20.9202 14.9002 20.2375 14.9002 19.5257Z" fill="#50438E"/>
</svg>
