<svg width="34" height="34" viewBox="0 0 34 34" fill="none" xmlns="http://www.w3.org/2000/svg">
<path d="M15.162 14.9121L18.5378 15.8379C20.3475 16.333 21.4759 18.1846 20.8039 19.9893C20.3225 21.2812 18.9566 22.0928 17.5 22.1191V23.5312C17.5 23.7891 17.275 24 16.9999 24H15.9997C15.7247 24 15.4996 23.7891 15.4996 23.5312V22.125C14.5182 22.1221 13.5617 21.8086 12.7959 21.2461C12.549 21.0674 12.5177 20.7305 12.7396 20.5283L13.8274 19.5322C13.9899 19.3828 14.2462 19.3535 14.4369 19.4736C14.7495 19.6729 15.1245 19.7812 15.5059 19.7812H17.5782C18.0877 19.7812 18.5003 19.3945 18.5003 18.917C18.5003 18.5361 18.2283 18.1963 17.8376 18.0879L14.6338 17.209C13.246 16.8281 12.1458 15.7295 12.0145 14.3789C11.8301 12.4775 13.4304 10.875 15.4215 10.875H15.4996V9.46875C15.4996 9.21094 15.7247 9 15.9997 9H16.9999C17.275 9 17.5 9.21094 17.5 9.46875V10.875C18.4815 10.8779 19.438 11.1914 20.2037 11.7539C20.4507 11.9326 20.4819 12.2695 20.26 12.4717L19.1723 13.4678C19.0097 13.6172 18.7534 13.6465 18.5628 13.5264C18.2502 13.3271 17.8751 13.2188 17.4938 13.2188H15.4215C14.912 13.2188 14.4994 13.6055 14.4994 14.083C14.4994 14.4639 14.7713 14.8066 15.162 14.9121Z" fill="#50438E"/>
<path fill-rule="evenodd" clip-rule="evenodd" d="M25.6009 31.6669C23.0777 33.1497 20.1382 34 17 34C7.61116 34 0 26.3888 0 17C0 14.1071 0.7226 11.3829 1.99715 8.99822C0.784325 8.08589 0 6.63454 0 5C0 2.23858 2.23858 0 5 0C6.63454 0 8.08589 0.784325 8.99822 1.99715C11.3829 0.7226 14.1071 0 17 0C26.3888 0 34 7.61116 34 17C34 19.6115 33.4112 22.0854 32.359 24.2963C33.367 25.211 34 26.5316 34 28C34 30.7614 31.7614 33 29 33C27.6874 33 26.4929 32.4942 25.6009 31.6669ZM24.1613 29.2646C22.0589 30.4949 19.6118 31.2 17 31.2C9.15756 31.2 2.8 24.8424 2.8 17C2.8 14.4498 3.47228 12.0565 4.64928 9.98789C4.76515 9.99592 4.8821 10 5 10C7.76142 10 10 7.76142 10 5C10 4.8821 9.99592 4.76515 9.98789 4.64928C12.0565 3.47228 14.4498 2.8 17 2.8C24.8424 2.8 31.2 9.15756 31.2 17C31.2 19.1718 30.7124 21.2298 29.8408 23.0704C29.5674 23.0241 29.2865 23 29 23C26.2386 23 24 25.2386 24 28C24 28.4369 24.056 28.8607 24.1613 29.2646Z" fill="#50438E"/>
</svg>
