<svg width="35" height="36" viewBox="0 0 35 36" fill="none" xmlns="http://www.w3.org/2000/svg">
<path d="M18.9293 10.0254V0H15.7395V10.0254H11.8662L17.3345 17.3164L22.8028 10.0254H18.9293Z" fill="#50438E"/>
<path d="M31.0056 19.1394C31.0056 12.9463 26.8652 7.70491 21.2081 6.0307L21.208 2.73096C28.6524 4.48133 34.1954 11.1611 34.1954 19.1394C34.1954 20.9658 33.9014 22.7237 33.3642 24.3709L30.5739 22.5539C30.8555 21.4624 31.0056 20.3177 31.0056 19.1394Z" fill="#50438E"/>
<path d="M3.66352 19.1403C3.66352 20.3204 3.81387 21.4667 4.09678 22.5599L1.28706 24.318C0.761308 22.6857 0.473633 20.9466 0.473633 19.1398C0.473633 11.1619 6.01688 4.48263 13.461 2.73145V6.0316C7.80411 7.70548 3.66352 12.9472 3.66352 19.1403Z" fill="#50438E"/>
<path d="M26.5816 29.1982C24.1454 31.4392 20.8977 32.8105 17.335 32.8105C13.7729 32.8105 10.5255 31.4399 8.08917 29.1992L5.30078 30.945C8.36031 34.0639 12.6207 36.0004 17.3353 36.0004C22.0287 36.0004 26.2719 34.082 29.3291 30.9875L26.5816 29.1982Z" fill="#50438E"/>
<path d="M26.0405 22.3205L34.6109 27.9026L32.8698 30.5758L24.3239 25.0099L22.279 28.2137L19.0762 19.6815L28.1633 18.9946L26.0405 22.3205Z" fill="#50438E"/>
<path d="M0 27.8107L8.65909 22.3917L6.59917 19.165L15.6871 19.8523L12.4846 28.3844L10.3755 25.0802L1.69203 30.5148L0 27.8107Z" fill="#50438E"/>
</svg>
