<svg width="36" height="36" viewBox="0 0 36 36" fill="none" xmlns="http://www.w3.org/2000/svg">
<path fill-rule="evenodd" clip-rule="evenodd" d="M24.1136 18.2461C24.1174 18.1644 24.1204 18.0821 24.1204 17.9994C24.1204 17.9166 24.1174 17.8367 24.1136 17.7526L24.6905 16.5437C24.9446 16.0132 24.9204 15.3913 24.6264 14.882L24.0129 13.82C23.7192 13.3108 23.193 12.979 22.607 12.9331L21.2673 12.8281C21.1302 12.7417 20.9898 12.6608 20.8465 12.5848L20.0842 11.4747C19.7508 10.991 19.2011 10.7021 18.6136 10.7021H17.3866C16.7989 10.7021 16.2489 10.9918 15.9161 11.4761L15.1537 12.5862C15.0104 12.6614 14.8701 12.7426 14.733 12.8294L13.3938 12.9345C12.8074 12.9804 12.281 13.3121 11.9873 13.8214L11.3738 14.884C11.0797 15.393 11.0556 16.0141 11.3091 16.5443L11.8866 17.7542C11.8828 17.836 11.8798 17.9182 11.8798 18.001C11.8798 18.0838 11.8828 18.1636 11.8866 18.2478L11.3097 19.4567C11.0556 19.9874 11.0797 20.6088 11.3738 21.1184L11.9873 22.1803C12.281 22.6896 12.8071 23.0211 13.3932 23.067L14.7329 23.172C14.8692 23.2576 15.0093 23.3379 15.1542 23.4153L15.916 24.5251C16.2493 25.0086 16.7993 25.2968 17.3865 25.2966H18.613C19.2007 25.2966 19.7507 25.007 20.0836 24.5226L20.8453 23.4134C20.9914 23.3379 21.1304 23.2568 21.2666 23.1702L22.6058 23.0651C23.1919 23.0195 23.7183 22.688 24.0123 22.1787L24.6258 21.1162C24.9198 20.6075 24.944 19.9861 24.6904 19.4559L24.1136 18.2461ZM18 16C17.4695 16 16.961 16.2108 16.5858 16.5858C16.2108 16.9609 16 17.4695 16 18C16 18.5305 16.2108 19.039 16.5858 19.4142C16.9609 19.7892 17.4695 20 18 20C18.5305 20 19.039 19.7892 19.4142 19.4142C19.7892 19.0391 20 18.5305 20 18C19.9994 17.4697 19.7885 16.9615 19.4135 16.5865C19.0385 16.2115 18.5303 16.0005 18 16Z" fill="#50438E"/>
<path fill-rule="evenodd" clip-rule="evenodd" d="M29.3518 6.64783C31.6718 8.96757 33.224 11.9435 33.799 15.1737C34.6435 15.3871 35.3489 15.9679 35.7209 16.7557C36.0931 17.5435 36.0931 18.4565 35.7209 19.2445C35.349 20.0324 34.6439 20.6125 33.7994 20.8259C33.2245 24.0563 31.6722 27.0324 29.3522 29.3524C27.032 31.6725 24.0558 33.2247 20.8256 33.7994C20.6122 34.6439 20.0321 35.3489 19.2443 35.7209C18.4565 36.093 17.5435 36.093 16.7555 35.7209C15.9676 35.349 15.3875 34.6439 15.1741 33.7994C11.9437 33.2245 8.96757 31.6722 6.64755 29.3522C4.32754 27.032 2.7753 24.0558 2.20059 20.8256C1.35607 20.6122 0.651062 20.0321 0.279143 19.2443C-0.0930476 18.4565 -0.0930476 17.5435 0.279143 16.7555C0.65102 15.9676 1.35607 15.3875 2.20059 15.1741C2.77554 11.9437 4.32782 8.96757 6.64783 6.64755C8.96798 4.32754 11.9442 2.7753 15.1744 2.20059C15.3878 1.35607 15.9679 0.651062 16.7557 0.279143C17.5435 -0.0930476 18.4565 -0.0930476 19.2446 0.279143C20.0324 0.65102 20.6125 1.35607 20.8259 2.20059C24.0559 2.77554 27.0317 4.32782 29.3518 6.64783ZM19.0732 30.3677C19.7633 30.6427 20.322 31.1721 20.6339 31.8464C23.4131 31.3212 25.9699 29.9703 27.9701 27.9701C29.9706 25.97 31.3214 23.4133 31.847 20.634C31.1726 20.3224 30.6433 19.7642 30.368 19.0741C30.093 18.384 30.093 17.6147 30.368 16.9246C30.6433 16.2346 31.1726 15.6764 31.847 15.365C31.3214 12.5853 29.9703 10.0289 27.9701 8.02894C25.97 6.02876 23.4133 4.67792 20.634 4.15262C20.3224 4.82674 19.764 5.35582 19.0739 5.63082C18.384 5.90582 17.6147 5.90582 16.9249 5.63082C16.2349 5.35575 15.6767 4.82668 15.365 4.15262C12.586 4.67794 10.0298 6.02827 8.02964 8.0279C6.02945 10.0272 4.67831 12.5831 4.1522 15.3619C4.82681 15.6735 5.35617 16.2323 5.63144 16.9226C5.90671 17.6129 5.90671 18.3825 5.63144 19.0729C5.35616 19.7636 4.82681 20.3219 4.1522 20.6339C4.67753 23.4129 6.02813 25.9691 8.02776 27.9693C10.0272 29.9694 12.5834 31.3206 15.3625 31.8464C15.6741 31.1721 16.2328 30.6427 16.9231 30.3677C17.6133 30.0925 18.3829 30.0925 19.0732 30.3677Z" fill="#50438E"/>
</svg>
