<svg width="36" height="28" viewBox="0 0 36 28" fill="none" xmlns="http://www.w3.org/2000/svg">
<path d="M35.4 4.2C35.4 6.5196 33.5196 8.4 31.2 8.4C30.9529 8.4 30.7108 8.37866 30.4754 8.33772L26.8096 15.9089C27.7786 16.6782 28.4 17.8666 28.4 19.2C28.4 21.5196 26.5196 23.4 24.2 23.4C21.8804 23.4 20 21.5196 20 19.2C20 18.7429 20.073 18.3029 20.208 17.891L14.0102 12.3214C13.2659 12.9919 12.2806 13.4 11.2 13.4C11.0206 13.4 10.8438 13.3887 10.6702 13.3669L6.9213 20.0007C7.8261 20.7711 8.4 21.9185 8.4 23.2C8.4 25.5196 6.5196 27.4 4.2 27.4C1.8804 27.4 0 25.5196 0 23.2C0 20.8804 1.8804 19 4.2 19C4.37353 19 4.5446 19.0105 4.71261 19.031L8.46634 12.3887C7.56867 11.6184 7 10.4756 7 9.2C7 6.8804 8.8804 5 11.2 5C13.5196 5 15.4 6.8804 15.4 9.2C15.4 9.55516 15.3559 9.90002 15.2729 10.2294L21.5918 15.9078C22.3082 15.3394 23.2145 15 24.2 15C24.3264 15 24.4515 15.0056 24.5751 15.0165L28.3283 7.26487C27.5108 6.49857 27 5.40893 27 4.2C27 1.8804 28.8804 0 31.2 0C33.5196 0 35.4 1.8804 35.4 4.2Z" fill="#50438E"/>
</svg>
