<svg width="33" height="34" viewBox="0 0 33 34" fill="none" xmlns="http://www.w3.org/2000/svg">
<path d="M15.7713 0.214215L28.9278 8.10721C29.039 8.1738 29.1311 8.26809 29.195 8.38087C29.2589 8.49365 29.2925 8.62108 29.2925 8.75072C29.2925 8.88035 29.2589 9.00778 29.195 9.12056C29.1311 9.23334 29.039 9.32763 28.9278 9.39421L15.0003 17.7507L1.07277 9.39421C0.96154 9.32763 0.869469 9.23334 0.80554 9.12056C0.741611 9.00778 0.708008 8.88035 0.708008 8.75072C0.708008 8.62108 0.741611 8.49365 0.80554 8.38087C0.869469 8.26809 0.96154 8.1738 1.07277 8.10721L14.2278 0.214215C14.4611 0.0740496 14.7281 0 15.0003 0C15.2724 0 15.5395 0.0740496 15.7728 0.214215H15.7713Z" fill="#50438E"/>
<path d="M28.9278 15.0822L27.1248 14.0007L15.0003 21.2757L2.87577 14.0007L1.07277 15.0822C0.96154 15.1488 0.869469 15.2431 0.80554 15.3559C0.741611 15.4686 0.708008 15.5961 0.708008 15.7257C0.708008 15.8554 0.741611 15.9828 0.80554 16.0956C0.869469 16.2083 0.96154 16.3026 1.07277 16.3692L15.0003 24.7257L19.4972 22.0276C20.9603 19.8243 23.3681 18.3025 26.1426 18.0403L28.9278 16.3692C29.039 16.3026 29.1311 16.2083 29.195 16.0956C29.2589 15.9828 29.2925 15.8554 29.2925 15.7257C29.2925 15.5961 29.2589 15.4686 29.195 15.3559C29.1311 15.2431 29.039 15.1488 28.9278 15.0822Z" fill="#50438E"/>
<path d="M18.0127 26.5182C18.0043 26.6777 18 26.8384 18 27C18 27.9496 18.1471 28.8648 18.4196 29.7241L15.7728 31.3122C15.5395 31.4524 15.2724 31.5264 15.0003 31.5264C14.7281 31.5264 14.4611 31.4524 14.2278 31.3122L1.07277 23.4192C0.96154 23.3526 0.869469 23.2583 0.80554 23.1456C0.741611 23.0328 0.708008 22.9054 0.708008 22.7757C0.708008 22.6461 0.741611 22.5186 0.80554 22.4059C0.869469 22.2931 0.96154 22.1988 1.07277 22.1322L2.87577 21.0507L15.0003 28.3257L18.0127 26.5182Z" fill="#50438E"/>
<path fill-rule="evenodd" clip-rule="evenodd" d="M28.2913 21.1369C27.4394 20.9539 26.5598 20.9544 25.7081 21.1382C25.6512 21.5235 25.5108 21.8912 25.2972 22.213C25.0836 22.5348 24.8023 22.8029 24.4742 22.9974C24.1462 23.1926 23.7797 23.3093 23.4019 23.3386C23.0241 23.368 22.6447 23.3094 22.2919 23.1671C21.7123 23.8352 21.2726 24.6189 21 25.4695C21.2962 25.7128 21.5352 26.0217 21.6994 26.3732C21.8636 26.7246 21.9487 27.1097 21.9484 27.4997C21.9487 27.8893 21.8637 28.2741 21.6997 28.6253C21.5358 28.9765 21.297 29.2852 21.0013 29.5285C21.2722 30.3801 21.7114 31.1647 22.2913 31.8329C22.6441 31.6904 23.0236 31.6316 23.4015 31.6609C23.7794 31.6901 24.1461 31.8067 24.4742 32.0019C24.8028 32.1967 25.0844 32.4653 25.2981 32.7877C25.5119 33.11 25.6522 33.4778 25.7087 33.8638C26.5607 34.0463 27.4402 34.0454 28.2919 33.8612C28.3488 33.4759 28.4892 33.1087 28.7028 32.787C28.9164 32.4652 29.1977 32.1971 29.5258 32.0026C29.8538 31.8074 30.2203 31.6907 30.5981 31.6614C30.9759 31.632 31.3553 31.6906 31.7081 31.8329C32.2877 31.1648 32.7274 30.3811 33 29.5305C32.4216 29.0541 32.0516 28.3217 32.0516 27.5003C32.0511 27.1104 32.136 26.7255 32.3 26.374C32.464 26.0225 32.7028 25.7136 32.9987 25.4702C32.7278 24.6189 32.2885 23.8345 31.7087 23.1664C31.3558 23.3088 30.9763 23.3675 30.5984 23.3381C30.2205 23.3088 29.8539 23.1921 29.5258 22.9968C29.1974 22.8022 28.916 22.5339 28.7022 22.2119C28.4885 21.8899 28.3481 21.5225 28.2913 21.1369ZM28.3395 28.8789C27.9842 29.2445 27.5024 29.4499 27 29.4499C26.4976 29.4499 26.0158 29.2445 25.6605 28.8789C25.3052 28.5133 25.1057 28.0174 25.1057 27.5003C25.1057 26.9833 25.3052 26.4874 25.6605 26.1218C26.0158 25.7561 26.4976 25.5507 27 25.5507C27.5024 25.5507 27.9842 25.7561 28.3395 26.1218C28.6948 26.4874 28.8943 26.9833 28.8943 27.5003C28.8943 28.0174 28.6948 28.5133 28.3395 28.8789Z" fill="#50438E"/>
</svg>
