<svg width="32" height="34" viewBox="0 0 32 34" fill="none" xmlns="http://www.w3.org/2000/svg">
<path d="M13.4737 0L25.7651 3.876C26.1079 3.98402 26.4075 4.19982 26.6202 4.49189C26.8329 4.78396 26.9475 5.13701 26.9474 5.4995V8.5H30.3158C30.7625 8.5 31.1909 8.67911 31.5067 8.99792C31.8226 9.31673 32 9.74913 32 10.2V13.6H10.1053V10.2C10.1053 9.74913 10.2827 9.31673 10.5986 8.99792C10.9144 8.67911 11.3428 8.5 11.7895 8.5H23.5789V6.749L13.4737 3.5598L3.36842 6.749V19.3358C3.36818 20.3766 3.60463 21.4035 4.05956 22.3376C4.51449 23.2716 5.17576 24.0877 5.99242 24.7231L6.31074 24.9543L13.4737 29.886L19.8434 25.5H11.7895C11.3428 25.5 10.9144 25.3209 10.5986 25.0021C10.2827 24.6833 10.1053 24.2509 10.1053 23.8V17H32V23.8C32 24.2509 31.8226 24.6833 31.5067 25.0021C31.1909 25.3209 30.7625 25.5 30.3158 25.5L24.8926 25.5017C24.2408 26.3687 23.4493 27.1337 22.5347 27.7627L13.4737 34L4.41263 27.7644C3.05267 26.8285 1.93979 25.5714 1.17076 24.1025C0.401732 22.6335 -0.00017048 20.9972 5.42481e-08 19.3358V5.4995C0.000203126 5.1373 0.115009 4.78463 0.327684 4.49291C0.540358 4.20118 0.839784 3.98564 1.18232 3.8777L13.4737 0Z" fill="#50438E"/>
</svg>
