<svg width="36" height="35" viewBox="0 0 36 35" fill="none" xmlns="http://www.w3.org/2000/svg">
<path d="M31.0499 9.9001C33.8061 9.9001 36 7.65025 36 4.95005C36 2.25014 33.7501 0 31.0499 0C28.2938 0 26.0999 2.24985 26.0999 4.95005C26.0999 5.68115 26.2686 6.41261 26.5499 7.03125L21.4874 11.3627C20.5874 10.8564 19.5186 10.575 18.3937 10.575C16.6501 10.575 15.0186 11.3061 13.8375 12.4314L9.84365 10.0126C10.0123 9.50631 10.125 8.94387 10.125 8.32515C10.125 5.5125 7.87517 3.26264 5.06251 3.26264C2.24985 3.26264 0 5.5125 0 8.32515C0 11.1378 2.24985 13.3877 5.06251 13.3877C6.24367 13.3877 7.31236 12.9939 8.15621 12.319L12.2624 14.794C11.981 15.4689 11.8686 16.2566 11.8686 17.0439C11.8686 20.5876 14.7936 23.5127 18.3374 23.5127C19.4061 23.5127 20.3624 23.2878 21.2063 22.8378L23.85 26.2129C23.2313 27.0567 22.8937 28.0692 22.8937 29.1379C22.8937 31.9506 25.1435 34.2004 27.9562 34.2004C30.7688 34.2004 33.0187 31.9506 33.0187 29.1379C33.0187 26.3253 30.7688 24.0754 27.9562 24.0754C27.2813 24.0754 26.6623 24.1879 26.0436 24.4692L23.3999 21.0379C24.3 19.913 24.8062 18.5629 24.8062 17.0441C24.8062 15.6378 24.3562 14.3442 23.5689 13.2755L28.4062 9.16874C29.1939 9.61877 30.0936 9.90012 31.0499 9.90012V9.9001ZM14.6814 17.0438C14.6814 15.0188 16.3126 13.3876 18.3376 13.3876C20.3626 13.3876 21.9938 15.0188 21.9938 17.0438C21.9938 19.0688 20.3626 20.7 18.3376 20.7C16.3126 20.7 14.6814 19.0688 14.6814 17.0438Z" fill="#50438E"/>
</svg>
