<svg width="23" height="23" viewBox="0 0 23 23" fill="none" xmlns="http://www.w3.org/2000/svg">
<path d="M11.0209 1.91663C5.99925 1.91663 1.91675 5.99913 1.91675 11.0208C1.91675 16.0425 5.99925 20.125 11.0209 20.125C16.0426 20.125 20.1251 16.0425 20.1251 11.0208C20.1251 5.99913 16.0426 1.91663 11.0209 1.91663ZM11.0209 13.177H8.14591C7.753 13.177 7.42716 12.8512 7.42716 12.4583C7.42716 12.0654 7.753 11.7395 8.14591 11.7395H11.0209C11.4138 11.7395 11.7397 12.0654 11.7397 12.4583C11.7397 12.8512 11.4138 13.177 11.0209 13.177ZM13.8959 10.302H8.14591C7.753 10.302 7.42716 9.97621 7.42716 9.58329C7.42716 9.19038 7.753 8.86454 8.14591 8.86454H13.8959C14.2888 8.86454 14.6147 9.19038 14.6147 9.58329C14.6147 9.97621 14.2888 10.302 13.8959 10.302Z" fill="url(#paint0_linear_54_1315)"/>
<path d="M20.4129 21.0819C20.2404 21.0819 20.0679 21.0149 19.9434 20.8903L18.1609 19.1078C17.9021 18.849 17.9021 18.4274 18.1609 18.159C18.4196 17.9003 18.8413 17.9003 19.1096 18.159L20.8921 19.9415C21.1509 20.2003 21.1509 20.6219 20.8921 20.8903C20.7579 21.0149 20.5854 21.0819 20.4129 21.0819Z" fill="url(#paint1_linear_54_1315)"/>
<defs>
<linearGradient id="paint0_linear_54_1315" x1="11.0209" y1="1.91663" x2="11.0209" y2="20.125" gradientUnits="userSpaceOnUse">
<stop stop-color="#FF8A00"/>
<stop offset="1" stop-color="#FF1619"/>
</linearGradient>
<linearGradient id="paint1_linear_54_1315" x1="19.5265" y1="17.965" x2="19.5265" y2="21.0819" gradientUnits="userSpaceOnUse">
<stop stop-color="#FF8A00"/>
<stop offset="1" stop-color="#FF1619"/>
</linearGradient>
</defs>
</svg>
