<svg width="30" height="29" viewBox="0 0 30 29" fill="none" xmlns="http://www.w3.org/2000/svg">
<path d="M20.5001 7.54995C20.7931 7.54995 21.0742 7.43935 21.2814 7.24248C21.4887 7.04561 21.6051 6.77859 21.6051 6.50017C21.6051 6.22176 21.4887 5.95474 21.2814 5.75787C21.0742 5.561 20.7931 5.4504 20.5001 5.4504C20.207 5.4504 19.9259 5.561 19.7187 5.75787C19.5115 5.95474 19.395 6.22176 19.395 6.50017C19.395 6.77859 19.5115 7.04561 19.7187 7.24248C19.9259 7.43935 20.207 7.54995 20.5001 7.54995Z" fill="#50438E"/>
<path d="M12.0001 15.7999C12.5025 15.7999 12.9843 15.6103 13.3396 15.2728C13.6948 14.9353 13.8944 14.4776 13.8944 14.0003C13.8944 13.523 13.6948 13.0653 13.3396 12.7278C12.9843 12.3903 12.5025 12.2007 12.0001 12.2007C11.4977 12.2007 11.0158 12.3903 10.6606 12.7278C10.3053 13.0653 10.1057 13.523 10.1057 14.0003C10.1057 14.4776 10.3053 14.9353 10.6606 15.2728C11.0158 15.6103 11.4977 15.7999 12.0001 15.7999Z" fill="#50438E"/>
<path fill-rule="evenodd" clip-rule="evenodd" d="M16.5001 26V23H28.5121C29.3176 23 30.0001 22.3235 30.0001 21.4895V2.0105C30.0001 1.1735 29.3341 0.5 28.5121 0.5H1.48806C0.682561 0.5 6.11189e-05 1.1765 6.11189e-05 2.0105V21.4895C-0.00171872 21.6865 0.0353906 21.8818 0.109262 22.0644C0.183134 22.247 0.292315 22.4133 0.430548 22.5536C0.568781 22.6939 0.733349 22.8056 0.914818 22.8822C1.09629 22.9588 1.29109 22.9988 1.48806 23H13.5001V26H7.50006V29H22.5001V26H16.5001ZM19.7464 3.07441C20.2433 2.97543 20.7564 2.97519 21.2533 3.07371C21.2864 3.28132 21.3684 3.47917 21.493 3.65255C21.6177 3.82594 21.7819 3.9704 21.9734 4.0752C22.1648 4.18036 22.3787 4.24318 22.5991 4.259C22.8196 4.27481 23.041 4.2432 23.2468 4.16653C23.585 4.52627 23.8413 4.94862 23.9993 5.40701C23.8267 5.53808 23.6874 5.70443 23.5917 5.89368C23.4961 6.08294 23.4465 6.29023 23.4468 6.50017C23.4468 6.94248 23.6627 7.33684 24.0001 7.59334C23.8411 8.05135 23.5845 8.47336 23.2464 8.83312C23.0407 8.7565 22.8193 8.72493 22.599 8.74074C22.3786 8.75655 22.1648 8.81934 21.9734 8.92445C21.7821 9.02922 21.618 9.17359 21.4934 9.34684C21.3688 9.5201 21.2869 9.71779 21.2537 9.92524C20.7569 10.0244 20.2438 10.0249 19.7468 9.92663C19.7138 9.71884 19.632 9.52079 19.5073 9.34721C19.3826 9.17363 19.2183 9.02901 19.0267 8.9241C18.8353 8.819 18.6214 8.75623 18.4009 8.74048C18.1805 8.72473 17.9591 8.75639 17.7533 8.83312C17.415 8.47327 17.1588 8.0508 17.0008 7.59229C17.1733 7.46129 17.3126 7.29506 17.4082 7.10593C17.5039 6.91681 17.5535 6.70965 17.5533 6.49982C17.5535 6.28983 17.5038 6.08249 17.4081 5.89324C17.3123 5.70398 17.1728 5.53766 17.0001 5.40666C17.1591 4.94865 17.4156 4.52664 17.7537 4.16688C17.9595 4.2435 18.1808 4.27507 18.4012 4.25926C18.6216 4.24345 18.8354 4.18066 19.0267 4.07555C19.2181 3.97078 19.3821 3.82641 19.5067 3.65316C19.6313 3.4799 19.7133 3.28186 19.7464 3.07441ZM10.7081 8.12757C11.5599 7.95788 12.4394 7.95747 13.2914 8.12637C13.3481 8.48226 13.4886 8.82143 13.7023 9.11866C13.916 9.41589 14.1975 9.66354 14.5258 9.8432C14.8539 10.0235 15.2206 10.1312 15.5985 10.1583C15.9764 10.1854 16.3559 10.1312 16.7088 9.99976C17.2886 10.6165 17.7278 11.3405 17.9988 12.1263C17.7029 12.351 17.464 12.6362 17.3001 12.9606C17.1361 13.285 17.0512 13.6404 17.0516 14.0003C17.0516 14.7585 17.4217 15.4346 18.0001 15.8743C17.7275 16.6595 17.2877 17.3829 16.7081 17.9996C16.3554 17.8683 15.976 17.8142 15.5982 17.8413C15.2204 17.8684 14.8538 17.976 14.5258 18.1562C14.1978 18.3358 13.9165 18.5833 13.7029 18.8803C13.4893 19.1773 13.3489 19.5162 13.292 19.8718C12.4403 20.0419 11.5608 20.0427 10.7088 19.8742C10.6523 19.518 10.5119 19.1785 10.2982 18.8809C10.0845 18.5834 9.80284 18.3354 9.47428 18.1556C9.14615 17.9754 8.7795 17.8678 8.40157 17.8408C8.02364 17.8138 7.64417 17.8681 7.29137 17.9996C6.71145 17.3828 6.27222 16.6585 6.00132 15.8725C6.29709 15.6479 6.53582 15.363 6.69979 15.0387C6.86376 14.7145 6.94876 14.3594 6.94849 13.9997C6.9488 13.6397 6.86369 13.2843 6.69949 12.9598C6.53529 12.6354 6.29622 12.3503 6.00006 12.1257C6.27264 11.3405 6.71241 10.6171 7.292 10.0004C7.64476 10.1317 8.02414 10.1858 8.40195 10.1587C8.77976 10.1316 9.14628 10.024 9.47428 9.8438C9.80234 9.66419 10.0836 9.4167 10.2972 9.1197C10.5108 8.82269 10.6513 8.48319 10.7081 8.12757Z" fill="#50438E"/>
</svg>
