<svg width="28" height="34" viewBox="0 0 28 34" fill="none" xmlns="http://www.w3.org/2000/svg">
<path d="M1.6745 3.239L14 0.5L26.3255 3.239C26.6586 3.31305 26.9565 3.49845 27.17 3.76461C27.3835 4.03077 27.4999 4.36177 27.5 4.703V13.4433L21.7097 17.1747L16.3513 15.1612L17.4535 23.0498L14.1102 21.6215L5.96901 28.1456L4.508 27.1715C3.27541 26.3498 2.26469 25.2366 1.56552 23.9307C0.866353 22.6247 0.500355 21.1663 0.5 19.685V4.703C0.500059 4.36177 0.616457 4.03077 0.829984 3.76461C1.04351 3.49845 1.34141 3.31305 1.6745 3.239Z" fill="#50438E"/>
<path d="M7.88937 29.4259L14 33.5L23.492 27.1715C24.7248 26.3497 25.7357 25.2363 26.4348 23.93C27.134 22.6238 27.4999 21.1651 27.5 19.6835V16.0605L21.9714 19.6232L19.0423 18.5226L20.1713 26.6034L14.4577 24.1623L7.88937 29.4259Z" fill="#50438E"/>
</svg>
