<svg width="34" height="34" viewBox="0 0 34 34" fill="none" xmlns="http://www.w3.org/2000/svg">
<path d="M17 2.10463e-05C12.8486 -0.00652029 8.83948 1.51196 5.7341 4.26702L5.7358 4.26872L7.2658 7.50211C9.15422 5.56666 11.5767 4.23809 14.2239 3.68612C16.8711 3.13414 19.6227 3.38383 22.1272 4.40328C24.6318 5.42273 26.7756 7.16566 28.2848 9.40943C29.794 11.6532 30.6 14.2959 30.6 17H26.35L30.9519 26.7155C32.9413 23.8667 34.0055 20.4746 34 17C34 7.61091 26.3891 2.10463e-05 17 2.10463e-05Z" fill="#50438E"/>
<path d="M17 34C21.1513 34.0065 25.1605 32.488 28.2659 29.733L28.2642 29.7313L26.7342 26.4979C24.8458 28.4333 22.4232 29.7619 19.7761 30.3139C17.1289 30.8659 14.3773 30.6162 11.8727 29.5967C9.36819 28.5773 7.22438 26.8343 5.71519 24.5906C4.206 22.3468 3.39995 19.7041 3.4 17H7.64999L3.0481 7.28451C1.1271 10.0385 0 13.3875 0 17C0 26.3891 7.6109 34 17 34Z" fill="#50438E"/>
<path d="M10.7 23H18.4V11H10.7C10.5143 11 10.3363 11.0702 10.205 11.1953C10.0737 11.3203 10 11.4899 10 11.6667V15.3333C10.4641 15.3333 10.9092 15.5089 11.2374 15.8215C11.5656 16.1341 11.75 16.558 11.75 17C11.75 17.442 11.5656 17.866 11.2374 18.1785C10.9092 18.4911 10.4641 18.6667 10 18.6667V22.3333C10 22.5101 10.0737 22.6797 10.205 22.8047C10.3363 22.9298 10.5143 23 10.7 23Z" fill="#50438E"/>
<path d="M23.3 11H19.8V23H23.3C23.4857 23 23.6637 22.9298 23.795 22.8047C23.9263 22.6797 24 22.5101 24 22.3333V18.6667C23.5359 18.6667 23.0908 18.4911 22.7626 18.1785C22.4344 17.866 22.25 17.442 22.25 17C22.25 16.558 22.4344 16.1341 22.7626 15.8215C23.0908 15.5089 23.5359 15.3333 24 15.3333V11.6667C24 11.4899 23.9263 11.3203 23.795 11.1953C23.6637 11.0702 23.4857 11 23.3 11Z" fill="#50438E"/>
</svg>
