<svg width="36" height="36" viewBox="0 0 36 36" fill="none" xmlns="http://www.w3.org/2000/svg">
<path fill-rule="evenodd" clip-rule="evenodd" d="M28.3479 21H26.6957C26.3535 21 25.9762 21 25.5788 21V26.1997C25.5788 26.5785 25.8817 26.8817 26.2608 26.8817H29.0651C29.5578 25.5175 30.8461 24.5323 32.3999 24.5323C34.4083 24.5323 35.9997 26.1237 36 28.1321C36 30.1404 34.3707 31.732 32.4001 31.732C30.8841 31.732 29.558 30.7468 29.0653 29.3826H26.261C24.5178 29.3826 23.1157 27.9806 23.1157 26.2374V20.9999C21.1703 20.9998 19.4349 20.9997 19.4349 20.9997C19.3664 20.9976 19.3053 20.9958 19.2504 20.9941V28.6247C20.6146 29.1174 21.5998 30.4058 21.5998 31.9595C21.5998 33.9679 19.9705 35.5595 17.9999 35.5595C15.9915 35.5595 14.3999 33.9301 14.3999 31.9595C14.3999 30.4436 15.3851 29.1174 16.7493 28.6247V20.9919C15.917 20.9956 14.7009 20.9988 12.8841 20.9996L12.8843 26.2752C12.8843 28.0185 11.4823 29.4205 9.73901 29.4205H6.93474C6.44204 30.7847 5.15368 31.7699 3.59993 31.7699C1.59158 31.7699 0 30.1784 0 28.17C0 26.1616 1.62934 24.5701 3.59993 24.5701C5.11586 24.5701 6.44202 25.5552 6.93474 26.9195H9.73901C10.1178 26.9195 10.421 26.6165 10.421 26.2375V20.9689C9.57832 20.9617 8.32812 20.9561 6.47831 20.9563C2.91303 20.9563 0 18.019 0 14.4239C0 10.8288 2.91295 7.89139 6.47831 7.89139C6.78102 7.89139 7.04055 7.93491 7.29982 7.97838L7.30447 7.97916C8.4349 3.41964 12.5219 0 17.3914 0C21.4784 0 24.9567 2.36729 26.6957 5.74316C27.2176 5.6557 27.7826 5.56793 28.3479 5.56793C32.5654 5.56793 36 9.03133 36 13.284C36 17.5367 32.5653 21 28.3479 21ZM16.5219 15.8267C16.5219 16.6597 17.1739 17.3172 18.0001 17.3172C18.8262 17.3172 19.4783 16.6597 19.4783 15.8267C19.4783 14.9937 18.8262 14.3362 18.0001 14.3362C17.1739 14.3362 16.5219 14.9937 16.5219 15.8267ZM21.261 13.459C21.4784 13.459 21.6958 13.3713 21.8696 13.196C22.2175 12.8453 22.2176 12.2756 21.9131 11.9248C19.8261 9.82048 16.2174 9.82048 14.1306 11.9248C13.7827 12.2752 13.7827 12.8453 14.1306 13.196C14.4781 13.5468 15.0434 13.5468 15.3913 13.196C16.7827 11.7493 19.2175 11.7493 20.6523 13.196C20.826 13.3713 21.0435 13.459 21.261 13.459ZM24.0869 10.6095C24.3043 10.6095 24.5218 10.5217 24.6955 10.3465C25.0434 9.99577 25.0433 9.42572 24.6521 9.07525C22.9131 7.27767 20.4784 6.2694 17.9566 6.2694C15.4352 6.2694 13.0438 7.27767 11.2612 9.07525C10.9133 9.42567 10.9133 9.99573 11.2612 10.3465C11.6087 10.6973 12.174 10.6973 12.5219 10.3465C14 8.85565 15.9132 8.06666 18 8.06666C20.0869 8.06666 22.0434 8.89973 23.4782 10.3465C23.652 10.5217 23.8694 10.6095 24.0869 10.6095Z" fill="#50438E"/>
</svg>
