<svg width="31" height="36" viewBox="0 0 31 36" fill="none" xmlns="http://www.w3.org/2000/svg">
<path d="M0.500037 10.5H9.50004C9.89786 10.5 10.2794 10.342 10.5607 10.0607C10.842 9.77936 11 9.39783 11 9V0H26.003C26.8295 0 27.5 0.6825 27.5 1.488V18.2514L24.5918 20.0813L22.8691 14.6519C22.7511 14.2645 22.3933 14 21.9878 14C21.5823 14 21.2246 14.2645 21.1065 14.6519L19.3839 20.1214L14.6163 17.1216C14.2719 16.9063 13.8275 16.9391 13.5184 17.202C13.2092 17.4651 13.1062 17.8977 13.2642 18.2713L15.3875 23.5511L9.80878 24.3312C9.4057 24.3884 9.08477 24.6981 9.01435 25.0985C8.94359 25.499 9.1391 25.8994 9.49825 26.0909L14.506 28.7508L10.7303 32.9803C10.7245 32.9868 10.7187 32.9934 10.713 33H1.98954C1.79255 32.9986 1.59777 32.9585 1.41631 32.8818C1.23484 32.8052 1.07026 32.6935 0.931941 32.5532C0.793628 32.413 0.684296 32.2469 0.61019 32.0643C0.536083 31.8818 0.498653 31.6865 0.500037 31.4895V10.5Z" fill="#50438E"/>
<path d="M0.500037 7.5L8.00004 0.00450003V7.5H0.500037Z" fill="#50438E"/>
<path fill-rule="evenodd" clip-rule="evenodd" d="M26.561 24.5845L30.4232 25.1246C30.7055 25.1573 30.9343 25.3688 30.9881 25.6474C31.042 25.9263 30.909 26.2077 30.6589 26.343L27.1921 28.1843L29.8062 31.0918C29.9931 31.3001 30.0258 31.6042 29.8877 31.8474C29.7493 32.0905 29.4709 32.2185 29.1958 32.1649L25.3823 31.3342L25.5279 35.2801C25.5413 35.459 25.4796 35.6354 25.357 35.7668C25.2347 35.8982 25.0629 35.9726 24.8829 35.9722C24.6863 35.9733 24.5008 35.8809 24.3838 35.723L21.9916 32.6079L19.5994 35.7506C19.4824 35.9084 19.2969 36.0009 19.1003 36C18.9203 36.0005 18.7485 35.9261 18.6262 35.7946C18.5036 35.6632 18.4418 35.4866 18.4553 35.3077L18.6218 31.3963L14.808 32.227H14.6625C14.4083 32.2199 14.1817 32.0655 14.0818 31.8321C13.982 31.5987 14.0273 31.3287 14.1979 31.1402L16.8118 28.2121L13.3449 26.3706C13.0963 26.238 12.961 25.9608 13.0099 25.6836C13.0587 25.4064 13.2809 25.192 13.5599 25.1524L17.4221 24.6123L15.9521 20.9571C15.8428 20.6984 15.914 20.3989 16.1281 20.2167C16.3421 20.0348 16.6498 20.0121 16.8882 20.1611L20.1888 22.2379L21.3814 18.4513C21.4632 18.1831 21.7109 18 21.9916 18C22.2723 18 22.52 18.1831 22.6017 18.4513L23.7943 22.2101L27.0949 20.1334C27.3334 19.9845 27.641 20.007 27.855 20.1892C28.0691 20.3712 28.1403 20.6709 28.031 20.9295L26.561 24.5845ZM23.0525 28.5582L24.8762 28.9527L23.6347 27.5544L25.2921 26.6681L23.4476 26.4119L24.1411 24.6676L22.56 25.6645L21.9915 23.8716L21.4231 25.6992L19.8491 24.7023L20.5426 26.4467L18.6981 26.7028L20.3413 27.589L19.0932 28.9734L20.9168 28.5789L20.8474 30.4619L21.9915 28.9527L23.1219 30.4412L23.0525 28.5582Z" fill="#50438E"/>
</svg>
