<?xml version="1.0" encoding="utf-8"?>
<!-- Generator: Adobe Illustrator 26.0.3, SVG Export Plug-In . SVG Version: 6.00 Build 0)  -->
<svg version="1.1" id="Layer_1" xmlns="http://www.w3.org/2000/svg" xmlns:xlink="http://www.w3.org/1999/xlink" x="0px" y="0px"
	 viewBox="0 0 40 40" style="enable-background:new 0 0 40 40;" xml:space="preserve">
<style type="text/css">
	.st0{fill:none;stroke:#FFFFFF;stroke-width:2.857;stroke-linecap:round;stroke-linejoin:round;}
</style>
<g>
	<path class="st0" d="M21.6,19.9c-0.9,0.4-1.8,0.4-2.7,0L2.6,12.4C1.8,12,1.5,11,1.9,10.3c0.2-0.3,0.4-0.6,0.7-0.7l16.3-7.6
		c0.9-0.4,1.8-0.4,2.7,0l16.3,7.5c0.8,0.4,1.1,1.4,0.7,2.1c-0.2,0.3-0.4,0.6-0.7,0.7C37.9,12.3,21.6,19.9,21.6,19.9z M38.8,21.2
		l-17.4,8c-0.8,0.3-1.6,0.3-2.4,0l-17.3-8 M38.8,30.5l-17.4,8c-0.8,0.3-1.6,0.3-2.4,0l-17.3-8"/>
</g>
</svg>
