<svg width="23" height="23" viewBox="0 0 23 23" fill="none" xmlns="http://www.w3.org/2000/svg">
<path d="M8.62508 1.91667C6.11425 1.91667 4.073 3.95792 4.073 6.46875C4.073 8.93167 5.99925 10.925 8.51008 11.0113C8.58675 11.0017 8.66341 11.0017 8.72091 11.0113C8.74008 11.0113 8.74966 11.0113 8.76883 11.0113C8.77841 11.0113 8.77841 11.0113 8.788 11.0113C11.2413 10.925 13.1676 8.93167 13.1772 6.46875C13.1772 3.95792 11.1359 1.91667 8.62508 1.91667Z" fill="url(#paint0_linear_54_681)"/>
<path d="M13.4934 13.5604C10.8197 11.7779 6.45925 11.7779 3.76633 13.5604C2.54925 14.375 1.87842 15.4771 1.87842 16.6558C1.87842 17.8346 2.54925 18.9271 3.75675 19.7321C5.09842 20.6329 6.86175 21.0833 8.62508 21.0833C10.3884 21.0833 12.1518 20.6329 13.4934 19.7321C14.7009 18.9175 15.3718 17.825 15.3718 16.6367C15.3622 15.4579 14.7009 14.3654 13.4934 13.5604Z" fill="url(#paint1_linear_54_681)"/>
<path d="M19.1572 7.03416C19.3105 8.89333 17.9881 10.5225 16.1576 10.7429C16.1481 10.7429 16.1481 10.7429 16.1385 10.7429H16.1097C16.0522 10.7429 15.9947 10.7429 15.9468 10.7621C15.0172 10.81 14.1643 10.5129 13.5222 9.96666C14.5093 9.08499 15.0747 7.76249 14.9597 6.32499C14.8926 5.54874 14.6243 4.83958 14.2218 4.23583C14.586 4.05374 15.0076 3.93874 15.4389 3.90041C17.3172 3.73749 18.9943 5.13666 19.1572 7.03416Z" fill="url(#paint2_linear_54_681)"/>
<path d="M21.0736 15.8988C20.997 16.8283 20.4028 17.6333 19.4061 18.1796C18.4478 18.7067 17.2403 18.9558 16.0424 18.9271C16.7324 18.3042 17.1349 17.5279 17.2116 16.7038C17.3074 15.5154 16.742 14.375 15.6112 13.4646C14.9691 12.9567 14.2216 12.5542 13.407 12.2571C15.5249 11.6438 18.1891 12.0558 19.8278 13.3783C20.7095 14.0875 21.1599 14.9788 21.0736 15.8988Z" fill="url(#paint3_linear_54_681)"/>
<defs>
<linearGradient id="paint0_linear_54_681" x1="8.62508" y1="1.91667" x2="8.62508" y2="11.0113" gradientUnits="userSpaceOnUse">
<stop stop-color="#FF8A00"/>
<stop offset="1" stop-color="#FF1619"/>
</linearGradient>
<linearGradient id="paint1_linear_54_681" x1="8.62508" y1="12.2235" x2="8.62508" y2="21.0833" gradientUnits="userSpaceOnUse">
<stop stop-color="#FF8A00"/>
<stop offset="1" stop-color="#FF1619"/>
</linearGradient>
<linearGradient id="paint2_linear_54_681" x1="16.3458" y1="3.88751" x2="16.3458" y2="10.7671" gradientUnits="userSpaceOnUse">
<stop stop-color="#FF8A00"/>
<stop offset="1" stop-color="#FF1619"/>
</linearGradient>
<linearGradient id="paint3_linear_54_681" x1="17.2455" y1="11.9788" x2="17.2455" y2="18.9293" gradientUnits="userSpaceOnUse">
<stop stop-color="#FF8A00"/>
<stop offset="1" stop-color="#FF1619"/>
</linearGradient>
</defs>
</svg>
