<svg width="24" height="24" viewBox="0 0 24 24" xmlns="http://www.w3.org/2000/svg">
    <g stroke="#504190" stroke-width="1.714" fill="none" fill-rule="evenodd" stroke-linecap="round" stroke-linejoin="round">
        <path d="M12.949 11.967a2.023 2.023 0 0 1-1.612 0L1.566 7.442a.96.96 0 0 1 0-1.715l9.771-4.56a2.023 2.023 0 0 1 1.612 0l9.771 4.526a.96.96 0 0 1 0 1.714l-9.771 4.56zM23.286 12.739l-10.457 4.817a1.714 1.714 0 0 1-1.423 0L1 12.739M23.286 18.31l-10.457 4.817a1.714 1.714 0 0 1-1.423 0L1 18.31"/>
    </g>
</svg>
